<?xml version="1.0" standalone="no"?>
<!DOCTYPE svg PUBLIC "-//W3C//DTD SVG 20010904//EN"
 "http://www.w3.org/TR/2001/REC-SVG-20010904/DTD/svg10.dtd">
<svg version="1.0" xmlns="http://www.w3.org/2000/svg"
 width="150.000000pt" height="150.000000pt" viewBox="0 0 150.000000 150.000000"
 preserveAspectRatio="xMidYMid meet">
<metadata>
Created by potrace 1.14, written by Peter Selinger 2001-2017
</metadata>
<g transform="translate(0.000000,150.000000) scale(0.100000,-0.100000)"
fill="#000000" stroke="none">
<path d="M727 1489 c-32 -3 -60 -9 -63 -11 -2 -3 33 -8 78 -11 310 -21 548
-216 648 -530 24 -73 20 -71 89 -46 27 11 26 21 -20 140 -90 234 -271 390
-513 444 -81 18 -149 22 -219 14z"/>
<path d="M330 1135 c0 -7 7 -15 15 -19 12 -4 15 -28 15 -126 0 -100 3 -120 15
-121 8 0 40 0 70 0 30 0 62 0 70 0 11 1 15 18 17 74 l3 72 140 0 c77 0 157 -4
178 -8 44 -9 109 -64 127 -107 7 -17 18 -30 24 -31 46 -2 159 0 162 4 3 2 -4
29 -16 59 -47 127 -149 193 -321 209 -156 14 -499 10 -499 -6z"/>
<path d="M70 771 c0 -49 -3 -97 -6 -106 -6 -15 2 -17 79 -14 105 5 127 20 134
96 5 42 1 53 -22 81 -26 31 -29 32 -106 32 l-79 0 0 -89z m151 38 c18 -28 21
-58 7 -86 -12 -25 -19 -28 -66 -31 l-52 -3 0 72 0 72 51 -5 c28 -3 55 -12 60
-19z"/>
<path d="M574 820 c-31 -12 -54 -49 -54 -86 0 -70 104 -110 163 -64 86 68 -5
192 -109 150z m82 -45 c18 -19 23 -31 19 -48 -15 -47 -61 -61 -95 -27 -38 38
-14 94 43 99 4 1 19 -10 33 -24z"/>
<path d="M743 818 c-9 -17 10 -28 48 -28 21 0 39 -2 39 -5 0 -3 -18 -30 -40
-60 -22 -30 -40 -59 -40 -65 0 -6 31 -10 80 -10 64 0 80 3 80 15 0 11 -11 15
-43 15 -24 0 -46 3 -50 6 -3 3 14 32 39 64 24 32 44 60 44 63 0 9 -152 13
-157 5z"/>
<path d="M320 735 c0 -82 1 -85 23 -85 20 0 23 4 19 36 -4 34 -3 35 23 32 20
-2 33 -12 44 -35 12 -25 22 -33 45 -33 l28 0 -27 36 -27 36 21 15 c16 11 21
23 19 46 l-3 32 -82 3 -83 3 0 -86z m128 38 c-5 -26 -81 -26 -86 0 -3 14 4 17
43 17 39 0 46 -3 43 -17z"/>
<path d="M945 735 c0 -83 1 -85 24 -85 20 0 23 4 18 27 -8 43 1 53 49 53 l44
0 0 -40 c0 -33 3 -40 20 -40 18 0 20 7 20 85 0 78 -2 85 -20 85 -16 0 -20 -7
-20 -31 0 -30 -1 -30 -47 -27 -45 3 -48 4 -46 31 1 22 -2 27 -20 27 -21 0 -22
-4 -22 -85z"/>
<path d="M1170 735 c0 -78 2 -85 20 -85 18 0 20 7 20 85 0 78 -2 85 -20 85
-18 0 -20 -7 -20 -85z"/>
<path d="M1260 735 c0 -78 2 -85 20 -85 18 0 20 7 20 58 l0 57 56 -57 c77 -80
84 -77 84 27 0 75 -2 85 -18 85 -15 0 -17 -7 -14 -41 6 -63 -9 -66 -62 -9 -26
27 -56 50 -66 50 -18 0 -20 -7 -20 -85z"/>
<path d="M46 601 c-35 -37 -31 -61 29 -186 78 -161 177 -261 330 -335 109 -52
199 -73 315 -73 112 0 165 13 278 66 29 14 29 31 0 23 -69 -21 -189 -36 -238
-31 -305 33 -532 199 -641 470 -16 40 -29 78 -29 84 0 19 -15 12 -44 -18z"/>
<path d="M367 624 c-4 -4 -7 -56 -7 -114 0 -83 -3 -110 -15 -120 -8 -7 -15
-17 -15 -22 0 -7 100 -8 278 -6 227 4 287 8 332 23 96 30 170 96 206 180 25
61 23 63 -67 61 -74 -2 -83 -4 -100 -26 -75 -96 -119 -112 -310 -108 l-134 3
-3 65 -3 66 -77 2 c-43 2 -81 0 -85 -4z"/>
</g>
</svg>
