<svg xmlns="http://www.w3.org/2000/svg"><symbol viewBox="0 0 18 17" id="arrow">
  <g id="SVGRepo_bgCarrier" stroke-width="0"/>
  <g id="SVGRepo_tracerCarrier" stroke-linecap="round" stroke-linejoin="round"/>
  <g id="SVGRepo_iconCarrier">
    <path d="M6 12H18M6 12L11 7M6 12L11 17" stroke="#f8f8f8" stroke-width="2" stroke-linecap="round" stroke-linejoin="round"/>
  </g>
</symbol><symbol viewBox="0 0 21 18.001333" id="burger">
  <g id="SVGRepo_bgCarrier" stroke-width="0"/>
  <g id="SVGRepo_tracerCarrier" stroke-linecap="round" stroke-linejoin="round"/>
  <g id="SVGRepo_iconCarrier">
    <g clip-path="url(#clip0_429_11066)">
      <path d="M3 6.00092H21M3 12.0009H21M3 18.0009H21" stroke="#969595" stroke-width="2.5" stroke-linecap="round" stroke-linejoin="round"/>
    </g>
    <defs>
      <clipPath id="clip0_429_11066">
        <rect width="24" height="24" fill="white" transform="translate(0 0.000915527)"/>
      </clipPath>
    </defs>
  </g>
</symbol><symbol viewBox="0 0 240.52519 330.92" id="coreldraw">
  <style type="text/css">.st0 { fill: url("#SVGID_1_"); }.st1 { fill: url("#SVGID_2_"); }.st2 { fill: url("#SVGID_3_"); }.st3 { fill: url("#SVGID_4_"); }.st4 { fill: url("#SVGID_5_"); }.st5 { fill: url("#SVGID_6_"); }.st6 { fill: url("#SVGID_7_"); }.st7 { fill: url("#SVGID_8_"); }.st8 { fill: url("#SVGID_9_"); }.st9 { fill: rgb(42, 198, 75); }.st10 { fill: rgb(151, 204, 26); }.st11 { fill: rgb(102, 101, 101); }.st12 { fill: rgb(0, 134, 63); }.st13 { fill: rgb(0, 138, 90); }.st14 { fill: rgb(0, 149, 80); }.st15 { fill: rgb(0, 152, 62); }.st16 { fill: rgb(0, 154, 55); }.st17 { fill: rgb(6, 203, 246); }.st18 { fill: url("#SVGID_10_"); }</style>
  <g>
    <path class="st9" d="M11.81,111.67c-4.04-1.84-7.54-3.26-10.4-4.33c-0.6-4.49-1.04-8.99-1.31-13.51 c-0.22-3.72-0.08-7.39,0.36-10.99c2.43,0.4,5.87,1,10.15,1.83c-0.42,5.11-0.46,10.49,0,16.17C10.9,104.47,11.3,108.08,11.81,111.67 z M51.77,135.26c-10.22-7.5-19.82-13.31-28.16-17.77c-1.69-10.39-2.41-20.69-1.78-30.49c7.71,1.7,16.83,3.9,26.86,6.69 C48.03,106.8,49.26,120.9,51.77,135.26L51.77,135.26z M156.73,140.73c-0.1,1.13-0.23,2.28-0.35,3.43 c-13.96,7.29-27.86,17.12-40.35,30.37c-4.04,4.28-7.72,8.58-11.09,12.86c-3.78-4.78-7.81-9.62-12.09-14.48 c-1.92-2.17-3.84-4.28-5.78-6.34c-3.21-21.5-5.25-42.71-5.63-62.59C106.29,112.8,133.12,124.77,156.73,140.73z"/>
    <path class="st13" d="M14.86,63.78c-2.09,6.34-3.61,13.3-4.25,20.89c-4.28-0.83-7.72-1.43-10.15-1.83 c0.27-2.27,0.68-4.51,1.19-6.72C4.7,72.84,9.11,68.51,14.86,63.78z"/>
    <path class="st14" d="M63.49,36.38c-7.35,13.48-13.24,31.65-14.73,55.89c-0.02,0.47-0.05,0.95-0.07,1.42 c-10.03-2.79-19.14-4.98-26.85-6.69c0.01-0.33,0.04-0.64,0.06-0.97c0.96-12.71,4.71-24.37,10.38-34.72 C41.05,45.9,51.44,40.64,63.49,36.38z"/>
    <path class="st15" d="M156.73,140.73c-23.61-15.96-50.44-27.93-75.29-36.75C80.96,80.3,82.8,58.53,87.7,40.49 c0.13-0.5,0.27-0.99,0.41-1.47c19.71,11.65,45.39,24.64,69.77,30.34C160.01,90.86,159.37,115.29,156.73,140.73L156.73,140.73z"/>
    <path class="st16" d="M240.42,93.83c-0.6,10-2.03,19.9-4.25,29.8c-2.81,0.11-6.05,0.29-9.64,0.6c1.58-7.63,2.74-15.44,3.38-23.39 c2.14-26.76-6.51-47.14-16.51-61.37c2.93,0.83,5.71,1.65,8.3,2.45C232.93,56.16,241.6,74.46,240.42,93.83z M215.43,125.52 c-7.83,1.12-16.67,2.87-26,5.54c2.14-13.43,3.07-26.55,2.32-38.79c-1.7-27.91-9.26-47.76-18.15-61.7 c8.36,1.38,16.29,3.01,23.61,4.72c11.67,13.78,19.93,30.98,21.41,50.75C219.56,98.64,218.21,112.08,215.43,125.52z"/>
    <path class="st12" d="M157.88,69.36c-24.38-5.71-50.06-18.7-69.77-30.34c1.04-3.61,2.2-6.89,3.48-9.87 c3.61-0.62,7.33-1.12,11.16-1.51c15.4-1.57,30.78-1.42,45.42-0.22c1.73,3.82,3.31,8.15,4.65,13.07 C155.2,49.29,156.87,58.98,157.88,69.36z"/>
    <path class="st17" d="M52.63,14.42c-0.81,0.5-27,16.62-37.77,49.35C9.11,68.5,4.7,72.84,1.66,76.11 C8.78,45.23,37.2,20.01,52.63,14.42z M69.2,27.16c-1.97,2.8-3.89,5.87-5.71,9.22c-12.04,4.26-22.44,9.52-31.21,14.94 c6.71-12.31,16.14-22.8,26.77-31.12C61.57,22,65.02,24.39,69.2,27.16z"/>
    <linearGradient id="SVGID_1_" gradientUnits="userSpaceOnUse" x1="-44827.8438" y1="22705.2246" x2="-44251.5625" y2="22687.7598" gradientTransform="matrix(0.253 0 0 -0.253 11407.7676 5761.9336)">
      <stop offset="0" style="stop-color: rgb(2, 136, 247);"/>
      <stop offset="1" style="stop-color: rgb(46, 226, 189);"/>
    </linearGradient>
    <path class="st0" d="M221.7,41.92c-2.59-0.8-5.37-1.62-8.3-2.45c-11.82-16.82-25.53-25.06-25.53-25.06 C196.96,17.7,210.59,27.83,221.7,41.92z M197.21,35.29c-7.31-1.71-15.24-3.34-23.6-4.72c-15-23.56-33.84-30.25-34.76-30.56 C159.04,4.06,181.3,16.51,197.21,35.29z M148.17,27.42c-14.64-1.21-30.02-1.35-45.42,0.22c-3.83,0.39-7.54,0.89-11.16,1.51 C102.41,3.65,120.01,0,120.01,0h0.5C120.51,0,137.31,3.48,148.17,27.42z M101.68,0.01c-0.87,0.3-17.91,6.35-32.48,27.15 c-4.17-2.76-7.63-5.15-10.15-6.95C72.33,9.83,87.51,2.85,101.68,0.01L101.68,0.01z"/>
    <path class="st11" d="M120.26,330.92h18.09l6.69-29.2H95.48l6.69,29.2H120.26z"/>
  </g>
  <linearGradient id="SVGID_2_" gradientUnits="userSpaceOnUse" x1="-44783.7422" y1="21855.7813" x2="-44925.4961" y2="22206.3262" gradientTransform="matrix(0.253 0 0 -0.253 11407.7676 5761.9336)">
    <stop offset="0" style="stop-color: rgb(203, 25, 24);"/>
    <stop offset="0.388" style="stop-color: rgb(162, 24, 61);"/>
    <stop offset="0.749" style="stop-color: rgb(144, 40, 105);"/>
    <stop offset="1" style="stop-color: rgb(115, 53, 138);"/>
  </linearGradient>
  <path class="st1" d="M51.95,200.22c3.48,7.19,6.8,13.61,9.66,18.97c4.9,9.17,9.56,16.97,14.37,24.07c1.39-4.86,3.12-9.99,5.28-15.31 c-3.73-8.55-7.47-17.74-11.03-27.31c-7.74-20.79-14.61-43.41-18.45-65.38c-10.22-7.49-19.82-13.31-28.16-17.76 C28.39,147.07,40.96,177.52,51.95,200.22L51.95,200.22z"/>
  <linearGradient id="SVGID_3_" gradientUnits="userSpaceOnUse" x1="-44855.375" y1="21826.8242" x2="-44997.1328" y2="22177.373" gradientTransform="matrix(0.253 0 0 -0.253 11407.7676 5761.9336)">
    <stop offset="0" style="stop-color: rgb(203, 25, 24);"/>
    <stop offset="0.388" style="stop-color: rgb(162, 24, 61);"/>
    <stop offset="0.749" style="stop-color: rgb(144, 40, 105);"/>
    <stop offset="1" style="stop-color: rgb(115, 53, 138);"/>
  </linearGradient>
  <path class="st2" d="M35.61,199.85c1.97,3.44,4.02,6.9,6.14,10.39c9.93,16.28,21.4,31.32,31.61,43.54c0.3-1.48,0.65-3.01,1.04-4.56 c-4.13-5.68-8.16-11.44-11.63-16.79c-4.97-7.65-12.16-18.74-19.66-32.39c-12.84-23.41-26.55-54.36-31.31-88.36 c-4.04-1.84-7.54-3.26-10.39-4.33C5.52,137.82,17.18,167.74,35.61,199.85L35.61,199.85z"/>
  <linearGradient id="SVGID_4_" gradientUnits="userSpaceOnUse" x1="-44658.5703" y1="21906.4102" x2="-44800.3281" y2="22256.9629" gradientTransform="matrix(0.253 0 0 -0.253 11407.7676 5761.9336)">
    <stop offset="0" style="stop-color: rgb(203, 25, 24);"/>
    <stop offset="0.388" style="stop-color: rgb(162, 24, 61);"/>
    <stop offset="0.749" style="stop-color: rgb(144, 40, 105);"/>
    <stop offset="1" style="stop-color: rgb(115, 53, 138);"/>
  </linearGradient>
  <path class="st3" d="M88.86,177.92c1.29,7.7,2.8,15.52,4.43,23.25c0.16,0.74,0.31,1.47,0.47,2.21c3.26-5.27,6.97-10.62,11.17-15.98 c-3.9-4.93-7.93-9.76-12.09-14.49c-1.92-2.17-3.84-4.28-5.78-6.33C87.63,170.35,88.22,174.13,88.86,177.92z"/>
  <path class="st10" d="M226.52,124.23c-4.6,22.34-12.7,43.03-21.32,60.73c1.74,1.75,3.44,3.5,5.09,5.22 c12.28-22.83,21.01-44.67,25.88-66.55C233.35,123.74,230.12,123.91,226.52,124.23z M189.44,131.06c-1.69,10.67-4.12,21.53-7.06,32.3 c5.08,4.58,10.63,9.71,16.09,14.97c6.83-16.3,13.21-34.57,16.97-52.81C207.6,126.65,198.77,128.4,189.44,131.06L189.44,131.06z"/>
  <linearGradient id="SVGID_5_" gradientUnits="userSpaceOnUse" x1="-44367.2383" y1="22104.8242" x2="-44572.9492" y2="21880.125" gradientTransform="matrix(0.253 0 0 -0.253 11407.7676 5761.9336)">
    <stop offset="0" style="stop-color: rgb(173, 216, 22);"/>
    <stop offset="1" style="stop-color: rgb(219, 215, 4);"/>
  </linearGradient>
  <path class="st4" d="M116.03,174.52c-4.04,4.28-7.72,8.58-11.09,12.87c14.69,18.56,25.61,36.21,33.52,50.97 c2.87-11.1,5.85-23.39,8.52-35.98c1.73-8.12,3.32-16.35,4.68-24.46c1.91-11.32,3.5-22.63,4.72-33.76 C142.41,151.45,128.52,161.27,116.03,174.52z M205.2,184.96c-0.33,0.68-0.66,1.35-0.99,2.02c-9.75,19.67-20,35.47-26.47,45.44 c-7.47,11.51-17.54,24.99-25.52,35.3c0.29,0.76,0.57,1.47,0.83,2.15c12.36-13.46,30.78-35.15,45.71-59.63 c3.75-6.15,7.25-12.2,10.52-18.19c0.34-0.62,0.68-1.24,1.01-1.87C208.64,188.45,206.94,186.71,205.2,184.96L205.2,184.96z M182.38,163.36l-0.39,1.4c-9.47,34.19-23.89,67.31-35.3,90.13c1.24,2.71,2.37,5.24,3.36,7.56c10.54-12.54,19.22-25.24,28.86-43.26 c5.29-9.92,12.15-23.44,18.7-38.82l0.86-2.04C193.01,173.07,187.46,167.94,182.38,163.36z"/>
  <linearGradient id="SVGID_6_" gradientUnits="userSpaceOnUse" x1="-44522.8008" y1="21673.0918" x2="-44697.9141" y2="21968.3984" gradientTransform="matrix(0.253 0 0 -0.253 11407.7676 5761.9336)">
    <stop offset="0" style="stop-color: rgb(225, 40, 43);"/>
    <stop offset="0.388" style="stop-color: rgb(227, 64, 42);"/>
    <stop offset="0.702" style="stop-color: rgb(231, 98, 38);"/>
    <stop offset="1" style="stop-color: rgb(241, 154, 10);"/>
  </linearGradient>
  <path class="st5" d="M129.77,284.65c7.7-7.98,14.29-15.06,20.28-22.2c-0.99-2.32-2.11-4.84-3.36-7.56 C138.61,271.07,132.02,282.07,129.77,284.65z"/>
  <linearGradient id="SVGID_7_" gradientUnits="userSpaceOnUse" x1="-44511.6133" y1="21679.7246" x2="-44686.7266" y2="21975.0332" gradientTransform="matrix(0.253 0 0 -0.253 11407.7676 5761.9336)">
    <stop offset="0" style="stop-color: rgb(225, 40, 43);"/>
    <stop offset="0.388" style="stop-color: rgb(227, 64, 42);"/>
    <stop offset="0.702" style="stop-color: rgb(231, 98, 38);"/>
    <stop offset="1" style="stop-color: rgb(241, 154, 10);"/>
  </linearGradient>
  <path class="st6" d="M139.23,284.17c0.41-0.4,5.87-5.65,13.83-14.3c-0.27-0.68-0.54-1.39-0.83-2.15 C145.09,276.96,139.65,283.67,139.23,284.17z"/>
  <linearGradient id="SVGID_8_" gradientUnits="userSpaceOnUse" x1="-44541.3906" y1="21662.082" x2="-44716.5" y2="21957.3828" gradientTransform="matrix(0.253 0 0 -0.253 11407.7676 5761.9336)">
    <stop offset="0" style="stop-color: rgb(225, 40, 43);"/>
    <stop offset="0.388" style="stop-color: rgb(227, 64, 42);"/>
    <stop offset="0.702" style="stop-color: rgb(231, 98, 38);"/>
    <stop offset="1" style="stop-color: rgb(241, 154, 10);"/>
  </linearGradient>
  <path class="st7" d="M93.76,203.37c9.1,42.57,21.58,81.61,21.58,81.61h9.84c0,0,6.33-19.83,13.28-46.63 c-7.91-14.76-18.83-32.4-33.52-50.97C100.73,192.75,97.02,198.1,93.76,203.37z"/>
  <linearGradient id="SVGID_9_" gradientUnits="userSpaceOnUse" x1="-44637.9141" y1="21604.8398" x2="-44813.0273" y2="21900.1484" gradientTransform="matrix(0.253 0 0 -0.253 11407.7676 5761.9336)">
    <stop offset="0" style="stop-color: rgb(225, 40, 43);"/>
    <stop offset="0.388" style="stop-color: rgb(227, 64, 42);"/>
    <stop offset="0.702" style="stop-color: rgb(231, 98, 38);"/>
    <stop offset="1" style="stop-color: rgb(241, 154, 10);"/>
  </linearGradient>
  <path class="st8" d="M75.97,243.26c9.95,14.77,20.43,26.52,34.77,41.39c-3.34-3.82-16.28-26.31-29.49-56.69 C79.09,233.27,77.36,238.4,75.97,243.26L75.97,243.26z"/>
  <linearGradient id="SVGID_10_" gradientUnits="userSpaceOnUse" x1="-44670.2852" y1="21585.6484" x2="-44845.3945" y2="21880.9512" gradientTransform="matrix(0.253 0 0 -0.253 11407.7676 5761.9336)">
    <stop offset="0" style="stop-color: rgb(225, 40, 43);"/>
    <stop offset="0.388" style="stop-color: rgb(227, 64, 42);"/>
    <stop offset="0.702" style="stop-color: rgb(231, 98, 38);"/>
    <stop offset="1" style="stop-color: rgb(241, 154, 10);"/>
  </linearGradient>
  <path class="st18" d="M73.36,253.77c15.01,17.97,27.31,29.8,27.94,30.4c-0.66-0.82-14.21-17.48-26.9-34.96 C74.02,250.76,73.67,252.29,73.36,253.77z"/>
</symbol><symbol viewBox="0 0 17.286333 17.298332" id="cross">
  <g id="SVGRepo_bgCarrier" stroke-width="0"/>
  <g id="SVGRepo_tracerCarrier" stroke-linecap="round" stroke-linejoin="round"/>
  <g id="SVGRepo_iconCarrier">
    <path d="M6.99486 7.00636C6.60433 7.39689 6.60433 8.03005 6.99486 8.42058L10.58 12.0057L6.99486 15.5909C6.60433 15.9814 6.60433 16.6146 6.99486 17.0051C7.38538 17.3956 8.01855 17.3956 8.40907 17.0051L11.9942 13.4199L15.5794 17.0051C15.9699 17.3956 16.6031 17.3956 16.9936 17.0051C17.3841 16.6146 17.3841 15.9814 16.9936 15.5909L13.4084 12.0057L16.9936 8.42059C17.3841 8.03007 17.3841 7.3969 16.9936 7.00638C16.603 6.61585 15.9699 6.61585 15.5794 7.00638L11.9942 10.5915L8.40907 7.00636C8.01855 6.61584 7.38538 6.61584 6.99486 7.00636Z" fill="#969595"/>
  </g>
</symbol><symbol viewBox="0 0 22.614668 24" id="css"><polygon points="6.972,14.935 7.274,18.316 11.994,19.59 11.998,19.589 11.998,19.589 16.725,18.313 17.217,12.816 2.528,12.816   2.149,8.578 17.584,8.578 17.97,4.238 1.771,4.238 1.385,0 22.615,0 20.686,21.59 12.013,23.994 12.013,23.995 11.993,24   3.312,21.59 2.718,14.935 "/></symbol><symbol viewBox="0 0 24 24" id="elementor">
  <g>
    <path d="M12.003,0C5.376-0.001,0.001,5.37,0,11.997C-0.001,18.624,5.37,23.999,11.997,24C18.624,24.001,23.999,18.63,24,12.003V12 C24,5.374,18.629,0.001,12.003,0z M9.001,16.999h-2v-10h2V16.999z M17.002,16.999h-6v-2h6V16.999z M17.002,12.998h-6v-2h6V12.998z M17.002,8.999h-6v-2h6V8.999z"/>
  </g>
</symbol><symbol viewBox="0 0 20.342667 23.998667" id="figma">
  <g id="Group">
    <g id="Rectangle_55_x5F_2">
      <path d="M18.312,8.245c1.222-0.803,2.031-2.187,2.031-3.755c0-2.476-2.015-4.49-4.491-4.49H8.148C5.672,0,3.657,2.014,3.657,4.49    c0,1.568,0.809,2.952,2.031,3.755C4.466,9.048,3.657,10.432,3.657,12s0.809,2.952,2.031,3.755    c-1.222,0.802-2.031,2.186-2.031,3.755c0,2.476,2.025,4.49,4.515,4.49c2.516,0,4.564-2.036,4.564-4.539V15.32    c0.798,0.727,1.858,1.17,3.019,1.17h0.097c2.476,0,4.491-2.014,4.491-4.49C20.343,10.432,19.534,9.048,18.312,8.245z     M12.735,1.471h3.117c1.665,0,3.02,1.354,3.02,3.019s-1.355,3.02-3.02,3.02h-3.117V1.471z M5.128,4.49    c0-1.665,1.355-3.019,3.02-3.019h3.117V7.51H8.148C6.483,7.51,5.128,6.155,5.128,4.49z M5.128,12c0-1.665,1.355-3.019,3.02-3.019    h3.117v6.039H8.129C6.473,15.009,5.128,13.658,5.128,12z M11.265,19.461c0,1.692-1.388,3.068-3.093,3.068    c-1.678,0-3.044-1.354-3.044-3.019s1.355-3.02,3.02-3.02h3.117V19.461z M15.852,15.02h-0.097c-1.665,0-3.019-1.355-3.019-3.02    s1.354-3.019,3.019-3.019h0.097c1.665,0,3.02,1.354,3.02,3.019S17.517,15.02,15.852,15.02z"/>
    </g>
    <g id="Rectangle_55_x5F_4">
      <path d="M8.148,15.019c-0.007,0-0.013,0-0.019,0h3.136v0H8.148z"/>
    </g>
  </g>
</symbol><symbol viewBox="0 0 959.10004 947.7" id="github">
  <path d="M511.6 76.3C264.3 76.2 64 276.4 64 523.5 64 718.9 189.3 885 363.8 946c23.5 5.9 19.9-10.8 19.9-22.2v-77.5c-135.7 15.9-141.2-73.9-150.3-88.9C215 726 171.5 718 184.5 703c30.9-15.9 62.4 4 98.9 57.9 26.4 39.1 77.9 32.5 104 26 5.7-23.5 17.9-44.5 34.7-60.8-140.6-25.2-199.2-111-199.2-213 0-49.5 16.3-95 48.3-131.7-20.4-60.5 1.9-112.3 4.9-120 58.1-5.2 118.5 41.6 123.2 45.3 33-8.9 70.7-13.6 112.9-13.6 42.4 0 80.2 4.9 113.5 13.9 11.3-8.6 67.3-48.8 121.3-43.9 2.9 7.7 24.7 58.3 5.5 118 32.4 36.8 48.9 82.7 48.9 132.3 0 102.2-59 188.1-200 212.9a127.5 127.5 0 0 1 38.1 91v112.5c.8 9 0 17.9 15 17.9 177.1-59.7 304.6-227 304.6-424.1 0-247.2-200.4-447.3-447.5-447.3z"/>
</symbol><symbol viewBox="0 0 88 66.016" id="gmail">
  <path fill="#4285f4" d="M6 66.0162h14v-34l-20-15v43c0 3.315 2.685 6 6 6z"/>
  <path fill="#34a853" d="M68 66.0162h14c3.315 0 6-2.685 6-6v-43l-20 15z"/>
  <path fill="#fbbc04" d="M68 6.0162v26l20-15v-8c0-7.415-8.465-11.65-14.4-7.2z"/>
  <path fill="#ea4335" d="M20 32.0162v-26l24 18 24-18v26l-24 18z"/>
  <path fill="#c5221f" d="M0 9.0162v8l20 15v-26l-5.6-4.2c-5.935-4.45-14.4-.215-14.4 7.2z"/>
</symbol><symbol viewBox="0 0 20.502666 24" id="html">
  <g>
    <path d="M5.081,0h1.078v1.069h0.994V0h1.078v3.234H7.153V2.156H6.169v1.078H5.081L5.081,0z M9.656,1.078H8.705V0h2.986v1.078   h-0.956v2.156H9.656V1.078z M12.164,0h1.13l0.694,1.139L14.681,0h1.13v3.234h-1.078V1.631l-0.755,1.162l-0.755-1.162v1.603h-1.059   V0z M16.345,0h1.078v2.166h1.528v1.069h-2.606V0z"/>
    <path d="M3.497,4.716l1.547,17.362L11.986,24l6.97-1.931l1.547-17.353H3.497z M6.656,8.264h5.334v2.128h-3l0.197,2.18h2.803v2.123   H7.237L6.656,8.264z M12,14.7h2.616l-0.248,2.766L12,18.101V14.7z M17.625,20.953L12,22.523v-2.198l-4.369-1.219l-0.3-3.342h2.138   l0.15,1.702l2.377,0.636l-0.005,0.001v2.212L12,20.313l4.35-1.207l0.586-6.534H12v-2.18h5.128l0.197-2.128H12V6.141h6.952   L17.625,20.953z"/>
    <polygon points="12,12.572 16.936,12.572 16.35,19.106 12,20.313 12,18.101 14.367,17.466 14.616,14.7 12,14.7  "/>
    <polygon points="17.325,8.264 17.128,10.392 12,10.392 12,8.264  "/>
    <path d="M11.991,8.264v2.128H12V8.264H11.991z M11.991,12.572v2.123H12v-2.123H11.991z M11.995,18.102l-0.005,0.001v2.212   L12,20.313v-2.21L11.995,18.102z"/>
    <path d="M11.991,8.264v2.128h5.137l0.197-2.128H11.991z M11.991,12.572V14.7h2.625l-0.248,2.766L12,18.101l-0.005,0.001   l-0.005,0.001v2.212L12,20.313l4.35-1.207l0.586-6.534H11.991z"/>
  </g>
</symbol><symbol viewBox="0 0 256 256" id="js">
  <path d="M0 0h256v256H0V0z" fill="#B3B3B3"/>
  <path d="M67.312 213.932l19.59-11.856c3.78 6.701 7.218 12.371 15.465 12.371 7.905 0 12.89-3.092 12.89-15.12v-81.798h24.057v82.138c0 24.917-14.606 36.259-35.916 36.259-19.245 0-30.416-9.967-36.087-21.996M152.381 211.354l19.588-11.341c5.157 8.421 11.859 14.607 23.715 14.607 9.969 0 16.325-4.984 16.325-11.858 0-8.248-6.53-11.17-17.528-15.98l-6.013-2.58c-17.357-7.387-28.87-16.667-28.87-36.257 0-18.044 13.747-31.792 35.228-31.792 15.294 0 26.292 5.328 34.196 19.247L210.29 147.43c-4.125-7.389-8.591-10.31-15.465-10.31-7.046 0-11.514 4.468-11.514 10.31 0 7.217 4.468 10.14 14.778 14.608l6.014 2.577c20.45 8.765 31.963 17.7 31.963 37.804 0 21.654-17.012 33.51-39.867 33.51-22.339 0-36.774-10.654-43.819-24.574"/>
</symbol><symbol viewBox="0 0 511.53867 313.0937" id="node">
<defs>
<linearGradient x1="68.188%" y1="17.487%" x2="27.823%" y2="89.755%" id="b">
<stop stop-color="#41873F" offset="0%"/>
<stop stop-color="#418B3D" offset="32.88%"/>
<stop stop-color="#419637" offset="63.52%"/>
<stop stop-color="#3FA92D" offset="93.19%"/>
<stop stop-color="#3FAE2A" offset="100%"/>
</linearGradient>

<path id="a" d="M57.903 1.85a5.957 5.957 0 0 0-5.894 0L3.352 29.933c-1.85 1.04-2.89 3.005-2.89 5.085v56.286c0 2.08 1.156 4.045 2.89 5.085l48.657 28.085a5.957 5.957 0 0 0 5.894 0l48.658-28.085c1.849-1.04 2.89-3.005 2.89-5.085V35.019c0-2.08-1.157-4.045-2.89-5.085L57.903 1.85z"/>

<linearGradient x1="43.277%" y1="55.169%" x2="159.245%" y2="-18.306%" id="d">
<stop stop-color="#41873F" offset="13.76%"/>
<stop stop-color="#54A044" offset="40.32%"/>
<stop stop-color="#66B848" offset="71.36%"/>
<stop stop-color="#6CC04A" offset="90.81%"/>
</linearGradient>
<linearGradient x1="-4413.77%" y1="13.43%" x2="5327.93%" y2="13.43%" id="e">
<stop stop-color="#6CC04A" offset="9.192%"/>
<stop stop-color="#66B848" offset="28.64%"/>
<stop stop-color="#54A044" offset="59.68%"/>
<stop stop-color="#41873F" offset="86.24%"/>
</linearGradient>
<linearGradient x1="-4.389%" y1="49.997%" x2="101.499%" y2="49.997%" id="f">
<stop stop-color="#6CC04A" offset="9.192%"/>
<stop stop-color="#66B848" offset="28.64%"/>
<stop stop-color="#54A044" offset="59.68%"/>
<stop stop-color="#41873F" offset="86.24%"/>
</linearGradient>
<linearGradient x1="-9713.77%" y1="36.21%" x2="27.93%" y2="36.21%" id="g">
<stop stop-color="#6CC04A" offset="9.192%"/>
<stop stop-color="#66B848" offset="28.64%"/>
<stop stop-color="#54A044" offset="59.68%"/>
<stop stop-color="#41873F" offset="86.24%"/>
</linearGradient>
<linearGradient x1="-103.861%" y1="50.275%" x2="100.797%" y2="50.275%" id="h">
<stop stop-color="#6CC04A" offset="9.192%"/>
<stop stop-color="#66B848" offset="28.64%"/>
<stop stop-color="#54A044" offset="59.68%"/>
<stop stop-color="#41873F" offset="86.24%"/>
</linearGradient>
<linearGradient x1="130.613%" y1="-211.069%" x2="4.393%" y2="201.605%" id="i">
<stop stop-color="#41873F" offset="0%"/>
<stop stop-color="#418B3D" offset="32.88%"/>
<stop stop-color="#419637" offset="63.52%"/>
<stop stop-color="#3FA92D" offset="93.19%"/>
<stop stop-color="#3FAE2A" offset="100%"/>
</linearGradient>
</defs>
<g fill="none">
<path d="M253.11 313.094c-1.733 0-3.351-.462-4.854-1.271l-15.371-9.13c-2.312-1.272-1.156-1.734-.462-1.965 3.12-1.04 3.698-1.272 6.934-3.12.347-.232.81-.116 1.156.115l11.789 7.05c.462.231 1.04.231 1.386 0l46.115-26.698c.462-.231.694-.694.694-1.271v-53.28c0-.579-.232-1.04-.694-1.272l-46.115-26.582c-.462-.232-1.04-.232-1.386 0l-46.115 26.582c-.462.231-.694.809-.694 1.271v53.28c0 .463.232 1.04.694 1.272l12.598 7.281c6.819 3.467 11.095-.578 11.095-4.623v-52.587c0-.693.578-1.387 1.387-1.387h5.894c.694 0 1.387.578 1.387 1.387v52.587c0 9.13-4.97 14.447-13.638 14.447-2.658 0-4.738 0-10.633-2.89l-12.135-6.934c-3.005-1.733-4.854-4.97-4.854-8.437v-53.28c0-3.467 1.849-6.704 4.854-8.437l46.114-26.698c2.89-1.618 6.82-1.618 9.709 0l46.114 26.698c3.005 1.733 4.855 4.97 4.855 8.437v53.28c0 3.467-1.85 6.704-4.855 8.437l-46.114 26.698c-1.503.694-3.236 1.04-4.854 1.04zm14.216-36.637c-20.225 0-24.386-9.246-24.386-17.105 0-.694.578-1.387 1.387-1.387h6.01c.693 0 1.271.462 1.271 1.156.925 6.125 3.583 9.13 15.834 9.13 9.708 0 13.87-2.196 13.87-7.397 0-3.005-1.157-5.2-16.297-6.703-12.598-1.272-20.457-4.045-20.457-14.1 0-9.362 7.86-14.91 21.035-14.91 14.793 0 22.075 5.086 23 16.18 0 .348-.116.694-.347 1.041-.232.231-.578.462-.925.462h-6.01c-.578 0-1.156-.462-1.271-1.04-1.387-6.356-4.97-8.437-14.447-8.437-10.633 0-11.905 3.699-11.905 6.472 0 3.352 1.503 4.392 15.834 6.241 14.216 1.85 20.92 4.508 20.92 14.447-.116 10.171-8.437 15.95-23.116 15.95z" fill="#539E43"/>

<path d="M110.028 104.712c0-2.08-1.156-4.046-3.005-5.086l-49.004-28.2c-.81-.463-1.734-.694-2.658-.81h-.463c-.924 0-1.849.347-2.658.81l-49.004 28.2c-1.85 1.04-3.005 3.005-3.005 5.086l.116 75.817c0 1.04.578 2.08 1.502 2.543.925.578 2.08.578 2.89 0l29.125-16.643c1.849-1.04 3.005-3.005 3.005-5.085v-35.482c0-2.08 1.155-4.045 3.005-5.085l12.366-7.166c.925-.578 1.965-.81 3.005-.81 1.04 0 2.08.232 2.89.81l12.366 7.166c1.85 1.04 3.005 3.004 3.005 5.085v35.482c0 2.08 1.156 4.045 3.005 5.085l29.125 16.643c.925.578 2.08.578 3.005 0 .925-.463 1.503-1.503 1.503-2.543l-.116-75.817zM345.571.347c-.924-.463-2.08-.463-2.89 0-.924.578-1.502 1.502-1.502 2.542v75.125c0 .693-.346 1.386-1.04 1.849-.693.346-1.387.346-2.08 0l-12.251-7.05a5.957 5.957 0 0 0-5.895 0l-49.004 28.316c-1.849 1.04-3.005 3.005-3.005 5.085v56.516c0 2.08 1.156 4.046 3.005 5.086l49.004 28.316a5.957 5.957 0 0 0 5.895 0l49.004-28.316c1.849-1.04 3.005-3.005 3.005-5.086V21.844c0-2.196-1.156-4.16-3.005-5.201L345.572.347zm-4.507 143.776c0 .578-.231 1.04-.694 1.271l-16.758 9.708a1.714 1.714 0 0 1-1.503 0l-16.758-9.708c-.463-.231-.694-.809-.694-1.271v-19.417c0-.578.231-1.04.694-1.271l16.758-9.709a1.714 1.714 0 0 1 1.503 0l16.758 9.709c.463.23.694.809.694 1.271v19.417zM508.648 124.244c1.85-1.04 2.89-3.005 2.89-5.086v-13.753c0-2.08-1.156-4.045-2.89-5.085l-48.657-28.2a5.957 5.957 0 0 0-5.894 0l-49.004 28.315c-1.85 1.04-3.005 3.005-3.005 5.086v56.516c0 2.08 1.155 4.045 3.005 5.085l48.657 27.738c1.85 1.04 4.045 1.04 5.779 0L489 178.45c.925-.463 1.503-1.503 1.503-2.543 0-1.04-.578-2.08-1.503-2.543l-49.235-28.316c-.924-.577-1.502-1.502-1.502-2.542v-17.683c0-1.04.578-2.08 1.502-2.543l15.372-8.784a2.821 2.821 0 0 1 3.005 0l15.371 8.784c.925.578 1.503 1.502 1.503 2.543v13.869c0 1.04.578 2.08 1.502 2.542.925.578 2.08.578 3.005 0l29.125-16.99z" fill="#B3B3B3"/>

<path d="M456.293 121.586a1.05 1.05 0 0 1 1.155 0l9.362 5.432c.347.23.578.577.578 1.04v10.864c0 .462-.231.809-.578 1.04l-9.362 5.432a1.05 1.05 0 0 1-1.155 0l-9.362-5.432c-.347-.231-.578-.578-.578-1.04v-10.864c0-.463.231-.81.578-1.04l9.362-5.432z" fill="#539E43"/>

<g transform="translate(134.068 70.501)">
<mask id="c" fill="#ffffff">
<use xmlns:ns1="http://www.w3.org/1999/xlink" ns1:href="#a"/>
</mask>
<use fill="url(#b)" xmlns:ns1="http://www.w3.org/1999/xlink" ns1:href="#a"/>
<g mask="url(#c)">
<path d="M51.893 1.85L3.121 29.933C1.27 30.974 0 32.94 0 35.02v56.286c0 1.387.578 2.658 1.502 3.698L56.285 1.156c-1.387-.231-3.005-.116-4.392.693zM56.632 125.053c.462-.116.925-.347 1.387-.578l48.773-28.085c1.85-1.04 3.005-3.005 3.005-5.085V35.019c0-1.502-.694-3.005-1.734-4.045l-51.43 94.079z"/>
<path d="M106.676 29.934L57.788 1.85a8.025 8.025 0 0 0-1.503-.578L1.502 95.12a6.082 6.082 0 0 0 1.619 1.387l48.888 28.085c1.387.809 3.005 1.04 4.507.577l51.432-94.078c-.347-.462-.81-.81-1.272-1.156z" fill="url(#d)"/>
</g>
<g mask="url(#c)">
<path d="M109.797 91.305V35.019c0-2.08-1.271-4.045-3.12-5.085L57.786 1.85a5.106 5.106 0 0 0-1.848-.693l53.511 91.42c.231-.347.347-.809.347-1.271zM3.12 29.934C1.272 30.974 0 32.94 0 35.02v56.286c0 2.08 1.387 4.045 3.12 5.085l48.889 28.085c1.156.693 2.427.925 3.814.693L3.467 29.818l-.346.116z"/>

<path fill="url(#e)" fill-rule="evenodd" d="M50.391.809l-.693.347h.924l-.231-.347z" transform="translate(0 -9.246)"/>

<path d="M106.792 105.636c1.387-.809 2.427-2.196 2.89-3.698L56.053 10.402c-1.387-.231-2.89-.116-4.16.693L3.351 39.065l52.355 95.465a8.057 8.057 0 0 0 2.196-.693l48.889-28.2z" fill="url(#f)" fill-rule="evenodd" transform="translate(0 -9.246)"/>

<path fill="url(#g)" fill-rule="evenodd" d="M111.3 104.712l-.347-.578v.809l.346-.231z" transform="translate(0 -9.246)"/>

<path d="M106.792 105.636l-48.773 28.085a6.973 6.973 0 0 1-2.196.693l.925 1.734 54.089-31.32v-.694l-1.387-2.312c-.231 1.618-1.271 3.005-2.658 3.814z" fill="url(#h)" fill-rule="evenodd" transform="translate(0 -9.246)"/>

<path d="M106.792 105.636l-48.773 28.085a6.973 6.973 0 0 1-2.196.693l.925 1.734 54.089-31.32v-.694l-1.387-2.312c-.231 1.618-1.271 3.005-2.658 3.814z" fill="url(#i)" fill-rule="evenodd" transform="translate(0 -9.246)"/>
</g>
</g>
</g>
</symbol><symbol viewBox="0 0 43.494663 32.594666" id="ok"><defs><style type="text/css">.fil0 { fill: rgb(145, 220, 90); }.fil2 { fill: white; }.fil3 { fill: rgb(91, 91, 91); fill-rule: nonzero; }.fil1 { fill: white; fill-rule: nonzero; }</style></defs><g id="Слой_x0020_1"><metadata id="CorelCorpID_0Corel-Layer"/><g id="_2331783948704"><g><path class="fil0" d="M4.668 1.38c5.749,0 11.507,0 17.266,0 5.752,0 11.514,0 17.279,0 0.593,3.778 1.227,7.818 1.906,12.147 0.731,4.663 1.52,9.691 2.374,15.133 -7.182,0 -14.364,0.001 -21.537,0.003 -7.174,0.001 -14.351,0 -21.52,0 0.844,-5.442 1.625,-10.473 2.348,-15.138 0.672,-4.332 1.299,-8.372 1.884,-12.145z"/><g><path class="fil1" d="M22.017 3.061l0 0.229 0 0 -0.305 0 -0.304 0 -0.304 0 -0.304 0 -0.304 0 -0.304 -0.001 -0.304 0 -0.304 0 -0.304 0 -0.304 0 -0.304 0 -0.304 0 -0.304 0 -0.304 0 -0.304 0 -0.304 -0.001 -0.304 0 -0.304 0 -0.304 0 -0.304 0 -0.303 0 -0.304 0 -0.304 0 -0.304 0 -0.303 0 -0.304 0 -0.304 -0.001 -0.304 0 -0.303 0 -0.303 0 -0.304 0 -0.304 0 0 -0.229 0.304 0 0.304 0 0.303 0 0.303 0 0.304 0 0.304 0.001 0.304 0 0.303 0 0.304 0 0.304 0 0.304 0 0.303 0 0.304 0.001 0.304 0 0.304 0 0.304 0 0.304 0 0.304 0 0.304 0 0.304 0 0.304 0 0.304 0 0.304 0.001 0.304 0 0.304 0 0.304 0 0.304 0 0.304 0 0.304 0 0.304 0 0.304 0 0.305 0 0 0zm9.727 0l0 0.229 -0.305 0 -0.304 0 -0.304 0 -0.305 0 -0.304 0 -0.305 0 -0.304 0 -0.304 0 -0.304 0 -0.304 0 -0.305 0 -0.304 0 -0.304 0 -0.304 0 -0.304 0 -0.304 0 -0.304 0 -0.304 0 -0.304 0 -0.304 0 -0.303 0 -0.304 0 -0.304 0 -0.304 0 -0.303 0 -0.304 0 -0.304 0 -0.304 0 -0.303 0 -0.303 0 -0.304 0 -0.303 0 0 -0.229 0.303 0 0.304 0 0.303 0 0.303 0 0.304 0 0.304 0 0.304 0 0.303 0 0.304 0 0.304 0 0.304 0 0.303 0 0.304 0 0.304 0 0.304 0 0.304 0 0.304 0 0.304 0 0.304 0 0.304 0 0.304 0 0.305 0 0.304 0 0.304 0 0.304 0 0.304 0 0.305 0 0.304 0 0.305 0 0.304 0 0.304 0 0.305 0z"/></g><g><path class="fil1" d="M11.078 13.505l0 0 0.035 -0.405 0.035 -0.404 0.034 -0.402 0.035 -0.4 0.034 -0.398 0.033 -0.397 0.035 -0.395 0.033 -0.393 0.034 -0.392 0.033 -0.39 0.033 -0.389 0.034 -0.386 0.033 -0.386 0.033 -0.383 0.032 -0.382 0.033 -0.38 0.032 -0.378 0.033 -0.377 0.032 -0.375 0.032 -0.374 0.032 -0.372 0.032 -0.37 0.031 -0.369 0.032 -0.368 0.031 -0.365 0.031 -0.364 0.031 -0.363 0.032 -0.36 0.03 -0.36 0.031 -0.357 0.03 -0.356 0.031 -0.355 0.456 0.039 -0.031 0.355 -0.03 0.356 -0.031 0.357 -0.031 0.36 -0.031 0.36 -0.031 0.363 -0.031 0.364 -0.031 0.365 -0.032 0.368 -0.031 0.369 -0.032 0.37 -0.032 0.372 -0.032 0.374 -0.032 0.375 -0.033 0.377 -0.032 0.378 -0.033 0.38 -0.032 0.382 -0.033 0.383 -0.034 0.386 -0.033 0.386 -0.033 0.389 -0.033 0.39 -0.034 0.392 -0.034 0.393 -0.034 0.395 -0.033 0.397 -0.035 0.398 -0.034 0.4 -0.034 0.402 -0.035 0.404 -0.035 0.405 0 0 -0.456 -0.039zm-1.299 15.138l0.044 -0.509 0.044 -0.506 0.043 -0.504 0.042 -0.502 0.044 -0.5 0.042 -0.497 0.043 -0.494 0.042 -0.493 0.042 -0.49 0.042 -0.487 0.042 -0.486 0.041 -0.483 0.041 -0.48 0.041 -0.479 0.041 -0.476 0.04 -0.474 0.041 -0.472 0.041 -0.469 0.04 -0.467 0.039 -0.465 0.04 -0.462 0.039 -0.461 0.04 -0.458 0.039 -0.456 0.039 -0.453 0.038 -0.452 0.039 -0.449 0.039 -0.447 0.038 -0.445 0.038 -0.443 0.038 -0.44 0.037 -0.439 0.456 0.039 -0.037 0.439 -0.039 0.44 -0.037 0.443 -0.038 0.445 -0.039 0.447 -0.039 0.449 -0.038 0.452 -0.039 0.453 -0.039 0.456 -0.04 0.458 -0.039 0.461 -0.04 0.462 -0.039 0.465 -0.041 0.467 -0.04 0.469 -0.041 0.472 -0.04 0.474 -0.041 0.476 -0.041 0.479 -0.041 0.48 -0.042 0.483 -0.042 0.486 -0.042 0.487 -0.041 0.49 -0.042 0.493 -0.043 0.494 -0.042 0.497 -0.044 0.5 -0.042 0.502 -0.044 0.504 -0.043 0.506 -0.044 0.509 -0.456 -0.039z"/></g><g><path class="fil1" d="M22.051 25.987l0 0.229 0 0 -0.366 0 -0.366 0 -0.365 0 -0.366 0 -0.366 0 -0.366 0 -0.365 0.001 -0.366 0 -0.366 0 -0.366 0 -0.366 0 -0.366 0 -0.366 0 -0.365 0 -0.366 0 -0.366 0 -0.366 -0.001 -0.366 0 -0.366 0 -0.366 0 -0.366 0 -0.365 0 -0.366 0 -0.366 0 -0.366 0 -0.365 0 -0.366 0 -0.366 0 -0.366 0 -0.366 0 -0.365 0 -0.366 0 0 -0.229 0.366 0 0.365 0 0.366 0 0.366 0 0.366 0 0.366 0 0.365 0 0.366 0 0.366 0 0.366 0 0.365 0 0.366 0 0.366 0 0.366 0 0.366 0 0.366 0.001 0.366 0 0.366 0 0.365 0 0.366 0 0.366 0 0.366 0 0.366 0 0.366 0 0.366 0 0.365 -0.001 0.366 0 0.366 0 0.366 0 0.365 0 0.366 0 0.366 0 0 0zm11.709 -0.003l0 0.229 -0.366 0 -0.366 0 -0.366 0 -0.366 0 -0.366 0 -0.366 0 -0.366 0.001 -0.366 0 -0.366 0 -0.366 0 -0.366 0 -0.366 0 -0.366 0 -0.366 0 -0.366 0 -0.366 0 -0.366 0 -0.366 0 -0.366 0 -0.366 0 -0.366 0.001 -0.366 0 -0.366 0 -0.365 0 -0.366 0 -0.366 0 -0.366 0 -0.365 0 -0.366 0 -0.366 0 -0.366 0.001 -0.365 0 0 -0.229 0.365 0 0.366 0 0.366 0 0.366 0 0.365 0 0.366 -0.001 0.366 0 0.366 0 0.365 0 0.366 0 0.366 0 0.366 0 0.366 0 0.366 0 0.366 0 0.366 -0.001 0.366 0 0.366 0 0.366 0 0.366 0 0.366 0 0.366 0 0.366 0 0.366 0 0.366 0 0.366 -0.001 0.366 0 0.366 0 0.366 0 0.366 0 0.366 0 0.366 0z"/></g><g><path class="fil1" d="M22.006 17.602l0 0 -0.343 0 -0.344 0 -0.343 0 -0.344 0 -0.343 0 -0.344 0 -0.343 0 -0.344 0 -0.343 0 -0.344 0 -0.343 0 -0.344 0 -0.343 0 -0.344 0 -0.344 0 -0.343 0 -0.344 0 -0.343 0 -0.344 0 -0.343 0 -0.344 0 -0.343 0 -0.344 0 -0.343 0 -0.344 0 -0.343 0 -0.344 0 -0.344 0 -0.343 0 -0.344 0 -0.343 0 -0.344 0 0 -0.229 0.344 0 0.343 0 0.344 0 0.343 0 0.344 0 0.344 0 0.343 0 0.344 0 0.343 0 0.344 0 0.343 0 0.344 0 0.343 0 0.344 0 0.343 0 0.344 0 0.343 0 0.344 0 0.344 0 0.343 0 0.344 0 0.343 0 0.344 0 0.343 0 0.344 0 0.343 0 0.344 0 0.343 0 0.344 0 0.343 0 0.344 0 0.343 0 0 0 0 0.229zm10.997 0l-0.344 0 -0.344 0 -0.344 0 -0.344 0 -0.343 0 -0.344 0 -0.344 0 -0.344 0 -0.343 0 -0.344 0 -0.344 0 -0.343 0 -0.344 0 -0.344 0 -0.343 0 -0.344 0 -0.344 0 -0.343 0 -0.344 0 -0.343 0 -0.344 0 -0.344 0 -0.343 0 -0.344 0 -0.343 0 -0.344 0 -0.343 0 -0.344 0 -0.343 0 -0.344 0 -0.343 0 -0.344 0 0 -0.229 0.344 0 0.343 0 0.344 0 0.343 0 0.344 0 0.343 0 0.344 0 0.343 0 0.344 0 0.343 0 0.344 0 0.344 0 0.343 0 0.344 0 0.343 0 0.344 0 0.344 0 0.343 0 0.344 0 0.344 0 0.343 0 0.344 0 0.344 0 0.343 0 0.344 0 0.344 0 0.344 0 0.343 0 0.344 0 0.344 0 0.344 0 0.344 0 0 0.229z"/></g><g><path class="fil1" d="M22.005 10.018l0 0 -0.323 0 -0.324 0 -0.322 0 -0.323 0 -0.323 0 -0.323 0 -0.323 0 -0.323 0 -0.323 0 -0.323 0 -0.323 0 -0.323 0 -0.323 0 -0.322 0 -0.323 0 -0.323 0 -0.323 0 -0.323 0 -0.322 0 -0.323 0 -0.323 0 -0.323 0 -0.322 0 -0.323 0 -0.322 0 -0.323 0 -0.323 0 -0.322 0 -0.322 0 -0.323 0 -0.322 0 -0.322 0 0 -0.229 0.322 0 0.322 0 0.323 0 0.322 0 0.322 0 0.323 0 0.323 0 0.322 0 0.323 0 0.322 0 0.323 0 0.323 0 0.323 0 0.322 0 0.323 0 0.323 0 0.323 0 0.323 0 0.322 0 0.323 0 0.323 0 0.323 0 0.323 0 0.323 0 0.323 0 0.323 0 0.323 0 0.323 0 0.323 0 0.322 0 0.324 0 0.323 0 0 0 0 0.229zm10.331 0.002l-0.323 0 -0.324 0 -0.323 0 -0.323 0 -0.323 0 -0.324 0 -0.323 0 -0.323 0 -0.323 0 -0.323 0 -0.323 0 -0.323 0 -0.323 -0.001 -0.323 0 -0.323 0 -0.323 0 -0.323 0 -0.323 0 -0.323 0 -0.322 -0.001 -0.323 0 -0.322 0 -0.323 0 -0.323 0 -0.322 0 -0.323 0 -0.323 0 -0.322 0 -0.322 0 -0.323 0 -0.322 0 -0.322 0 0 -0.229 0.322 0 0.322 0 0.323 0 0.322 0 0.322 0 0.323 0 0.323 0 0.322 0 0.323 0 0.323 0.001 0.322 0 0.323 0 0.322 0 0.323 0 0.323 0 0.323 0 0.323 0 0.323 0 0.323 0 0.323 0.001 0.323 0 0.323 0 0.323 0 0.323 0 0.323 0 0.323 0 0.324 0.001 0.323 0 0.323 0 0.323 0 0.324 0 0.323 0 0 0.228z"/></g><g><path class="fil1" d="M32.405 13.586l0 0 -0.035 -0.406 -0.035 -0.404 -0.034 -0.403 -0.035 -0.401 -0.034 -0.399 -0.034 -0.398 -0.034 -0.396 -0.034 -0.394 -0.034 -0.393 -0.034 -0.391 -0.033 -0.389 -0.033 -0.388 -0.034 -0.386 -0.033 -0.385 -0.033 -0.383 -0.032 -0.381 -0.033 -0.38 -0.033 -0.378 -0.032 -0.377 -0.032 -0.375 -0.032 -0.373 -0.032 -0.372 -0.032 -0.37 -0.032 -0.369 -0.031 -0.367 -0.032 -0.366 -0.031 -0.364 -0.032 -0.363 -0.03 -0.361 -0.031 -0.359 -0.031 -0.359 -0.031 -0.356 0.458 -0.04 0.03 0.357 0.031 0.358 0.031 0.359 0.031 0.362 0.031 0.362 0.032 0.364 0.031 0.366 0.032 0.367 0.031 0.369 0.032 0.37 0.032 0.372 0.032 0.374 0.033 0.375 0.032 0.376 0.033 0.379 0.032 0.379 0.033 0.381 0.033 0.384 0.033 0.384 0.033 0.386 0.034 0.388 0.033 0.39 0.034 0.39 0.033 0.393 0.034 0.395 0.034 0.396 0.034 0.397 0.035 0.399 0.034 0.402 0.035 0.402 0.035 0.404 0.035 0.406 0 0 -0.458 0.04zm1.3 15.119l-0.044 -0.507 -0.043 -0.506 -0.044 -0.503 -0.043 -0.501 -0.042 -0.498 -0.043 -0.496 -0.043 -0.494 -0.042 -0.491 -0.042 -0.49 -0.042 -0.486 -0.042 -0.485 -0.041 -0.482 -0.041 -0.48 -0.041 -0.478 -0.041 -0.475 -0.041 -0.474 -0.04 -0.471 -0.041 -0.468 -0.04 -0.467 -0.04 -0.464 -0.039 -0.462 -0.04 -0.46 -0.039 -0.458 -0.039 -0.455 -0.039 -0.454 -0.039 -0.451 -0.039 -0.449 -0.038 -0.447 -0.038 -0.445 -0.038 -0.443 -0.038 -0.44 -0.038 -0.439 0.458 -0.04 0.037 0.439 0.038 0.44 0.038 0.443 0.039 0.445 0.038 0.447 0.039 0.449 0.038 0.451 0.039 0.454 0.039 0.455 0.04 0.458 0.039 0.46 0.04 0.462 0.04 0.464 0.04 0.467 0.04 0.469 0.041 0.471 0.04 0.473 0.041 0.475 0.041 0.478 0.042 0.48 0.041 0.482 0.042 0.485 0.042 0.487 0.042 0.489 0.042 0.491 0.042 0.494 0.043 0.496 0.043 0.499 0.043 0.5 0.043 0.503 0.044 0.506 0.043 0.508 -0.457 0.039z"/></g><path class="fil2" d="M8.44 12.156c0.891,0 1.548,0.633 1.472,1.435 -0.076,0.801 -0.876,1.467 -1.788,1.467 -0.912,0 -1.569,-0.666 -1.472,-1.467 0.097,-0.802 0.897,-1.435 1.788,-1.435z"/><path class="fil2" d="M8.653 13.172c1.785,0 3.57,0 5.355,0 -0.019,0.3 -0.038,0.603 -0.058,0.903 -1.798,0 -3.596,0 -5.39,0 0.032,-0.302 0.061,-0.603 0.093,-0.903z"/><g><path class="fil1" d="M4.285 13.692l0 0 0.057 -0.407 0.057 -0.405 0.057 -0.403 0.056 -0.401 0.056 -0.4 0.056 -0.398 0.056 -0.397 0.055 -0.394 0.055 -0.393 0.055 -0.392 0.054 -0.389 0.055 -0.388 0.054 -0.387 0.054 -0.384 0.054 -0.383 0.053 -0.382 0.054 -0.379 0.052 -0.378 0.053 -0.377 0.053 -0.374 0.052 -0.373 0.052 -0.372 0.052 -0.369 0.052 -0.369 0.051 -0.366 0.051 -0.365 0.051 -0.364 0.051 -0.361 0.051 -0.36 0.05 -0.359 0.05 -0.357 0.05 -0.355 0.603 0.085 -0.05 0.355 -0.049 0.357 -0.051 0.359 -0.05 0.36 -0.051 0.361 -0.051 0.363 -0.051 0.365 -0.052 0.367 -0.051 0.368 -0.052 0.37 -0.052 0.371 -0.052 0.373 -0.053 0.375 -0.053 0.377 -0.053 0.378 -0.053 0.379 -0.053 0.381 -0.054 0.383 -0.054 0.385 -0.054 0.386 -0.055 0.388 -0.054 0.39 -0.055 0.392 -0.055 0.393 -0.056 0.394 -0.055 0.396 -0.056 0.399 -0.056 0.399 -0.056 0.402 -0.057 0.403 -0.057 0.405 -0.057 0.406 0 0 -0.604 -0.084zm-2.129 15.184l0.071 -0.51 0.072 -0.508 0.071 -0.505 0.07 -0.503 0.07 -0.501 0.07 -0.499 0.07 -0.496 0.069 -0.494 0.069 -0.491 0.069 -0.489 0.068 -0.487 0.068 -0.485 0.067 -0.482 0.068 -0.48 0.067 -0.478 0.066 -0.475 0.067 -0.473 0.066 -0.471 0.066 -0.469 0.065 -0.466 0.065 -0.464 0.065 -0.462 0.064 -0.46 0.064 -0.457 0.064 -0.455 0.064 -0.453 0.063 -0.451 0.063 -0.448 0.062 -0.447 0.063 -0.444 0.062 -0.442 0.061 -0.439 0.604 0.084 -0.061 0.44 -0.063 0.442 -0.062 0.444 -0.062 0.447 -0.063 0.448 -0.063 0.45 -0.064 0.453 -0.064 0.456 -0.064 0.457 -0.065 0.46 -0.064 0.462 -0.065 0.463 -0.066 0.467 -0.066 0.469 -0.065 0.47 -0.067 0.474 -0.067 0.475 -0.066 0.477 -0.068 0.48 -0.067 0.483 -0.068 0.485 -0.069 0.486 -0.068 0.489 -0.069 0.492 -0.07 0.494 -0.069 0.496 -0.07 0.498 -0.07 0.501 -0.071 0.504 -0.07 0.505 -0.072 0.508 -0.071 0.51 -0.604 -0.085z"/></g><g><path class="fil1" d="M39.015 13.595l0 0 -0.058 -0.405 -0.057 -0.404 -0.057 -0.402 -0.057 -0.4 -0.057 -0.398 -0.056 -0.397 -0.056 -0.395 -0.057 -0.394 -0.055 -0.392 -0.056 -0.39 -0.055 -0.388 -0.055 -0.387 -0.055 -0.385 -0.054 -0.384 -0.054 -0.382 -0.055 -0.38 -0.053 -0.379 -0.054 -0.376 -0.054 -0.376 -0.052 -0.374 -0.053 -0.371 -0.053 -0.371 -0.053 -0.37 -0.052 -0.367 -0.052 -0.366 -0.052 -0.364 -0.051 -0.363 -0.051 -0.361 -0.052 -0.36 -0.05 -0.358 -0.051 -0.356 -0.051 -0.355 0.604 -0.086 0.051 0.355 0.05 0.357 0.051 0.358 0.051 0.359 0.052 0.362 0.051 0.362 0.052 0.365 0.052 0.365 0.052 0.368 0.053 0.368 0.052 0.371 0.053 0.373 0.053 0.374 0.054 0.375 0.053 0.377 0.054 0.379 0.055 0.38 0.053 0.382 0.055 0.383 0.055 0.385 0.055 0.387 0.055 0.389 0.056 0.39 0.055 0.392 0.056 0.393 0.056 0.395 0.057 0.397 0.057 0.398 0.057 0.4 0.057 0.402 0.057 0.404 0.058 0.405 0 0 -0.604 0.086zm2.153 15.141l-0.073 -0.509 -0.072 -0.507 -0.072 -0.505 -0.071 -0.503 -0.071 -0.499 -0.071 -0.498 -0.07 -0.494 -0.07 -0.494 -0.07 -0.49 -0.069 -0.488 -0.069 -0.485 -0.069 -0.483 -0.068 -0.481 -0.068 -0.479 -0.068 -0.476 -0.067 -0.474 -0.068 -0.472 -0.066 -0.469 -0.067 -0.467 -0.066 -0.464 -0.066 -0.464 -0.065 -0.46 -0.065 -0.457 -0.065 -0.457 -0.065 -0.453 -0.064 -0.451 -0.063 -0.449 -0.064 -0.447 -0.063 -0.445 -0.063 -0.443 -0.063 -0.44 -0.062 -0.438 0.604 -0.086 0.062 0.438 0.063 0.441 0.063 0.442 0.063 0.445 0.063 0.447 0.064 0.449 0.064 0.452 0.065 0.453 0.065 0.456 0.065 0.458 0.065 0.46 0.066 0.462 0.066 0.465 0.066 0.468 0.067 0.469 0.067 0.471 0.067 0.474 0.068 0.477 0.068 0.478 0.069 0.481 0.069 0.483 0.068 0.486 0.07 0.488 0.07 0.49 0.07 0.492 0.07 0.496 0.071 0.497 0.071 0.5 0.071 0.502 0.072 0.504 0.072 0.507 0.073 0.51 -0.604 0.086z"/></g></g><path class="fil3" d="M10.688 22.912c-0.18,1.222 -0.234,2.222 -0.155,2.993 0.081,0.785 0.273,1.434 0.576,1.941 0.435,0.73 1.02,1.197 1.75,1.384 0.735,0.188 1.626,0.284 2.667,0.284 0.379,0 0.782,-0.011 1.21,-0.029 0.424,-0.018 0.853,-0.086 1.271,-0.198 0.419,-0.112 0.82,-0.277 1.197,-0.501 0.375,-0.223 0.711,-0.536 1.013,-0.935 0.342,-0.452 0.623,-1.072 0.833,-1.857 0.206,-0.772 0.315,-1.798 0.325,-3.067 0.009,-1.24 -0.082,-2.182 -0.26,-2.847 -0.176,-0.653 -0.405,-1.166 -0.702,-1.534 -0.243,-0.301 -0.533,-0.529 -0.856,-0.698 -0.322,-0.168 -0.656,-0.292 -1.011,-0.376 -0.351,-0.083 -0.703,-0.133 -1.057,-0.146 -0.354,-0.014 -0.696,-0.02 -1.019,-0.022 -0.341,-0.001 -0.687,0.005 -1.043,0.017 -0.359,0.013 -0.716,0.061 -1.074,0.142 -0.356,0.082 -0.706,0.205 -1.048,0.372 -0.341,0.168 -0.656,0.398 -0.95,0.694 -0.368,0.371 -0.69,0.877 -0.968,1.523 -0.281,0.655 -0.513,1.604 -0.699,2.86zm5.965 -7.707c0.43,0.002 0.911,0.011 1.442,0.025 0.531,0.014 1.06,0.068 1.595,0.16 0.536,0.093 1.059,0.236 1.572,0.433 0.513,0.198 0.98,0.487 1.406,0.862 0.401,0.353 0.722,0.769 0.964,1.256 0.243,0.491 0.435,1.011 0.575,1.561 0.141,0.556 0.24,1.131 0.3,1.721 0.06,0.6 0.098,1.17 0.117,1.708 0.016,0.45 0.024,0.985 0.021,1.603 -0.002,0.629 -0.06,1.284 -0.17,1.959 -0.111,0.688 -0.294,1.374 -0.549,2.06 -0.26,0.695 -0.629,1.313 -1.111,1.85 -0.488,0.543 -1.053,0.963 -1.695,1.259 -0.644,0.298 -1.307,0.522 -1.993,0.663 -0.688,0.14 -1.361,0.22 -2.018,0.241 -0.66,0.021 -1.257,0.028 -1.798,0.028 -0.554,0 -1.164,-0.007 -1.821,-0.028 -0.654,-0.021 -1.311,-0.101 -1.966,-0.242 -0.657,-0.141 -1.279,-0.364 -1.873,-0.663 -0.59,-0.296 -1.097,-0.719 -1.52,-1.264 -0.431,-0.555 -0.73,-1.178 -0.891,-1.867 -0.158,-0.677 -0.234,-1.358 -0.233,-2.039 0.001,-0.67 0.051,-1.316 0.144,-1.939 0.091,-0.613 0.185,-1.16 0.278,-1.645 0.109,-0.569 0.236,-1.153 0.378,-1.744 0.142,-0.585 0.328,-1.149 0.552,-1.699 0.224,-0.546 0.497,-1.058 0.824,-1.543 0.323,-0.478 0.733,-0.895 1.219,-1.263 0.488,-0.371 0.997,-0.66 1.544,-0.856 0.543,-0.195 1.083,-0.336 1.627,-0.426 0.541,-0.09 1.076,-0.141 1.603,-0.153 0.524,-0.012 1.021,-0.019 1.477,-0.018zm20.187 17.151c-1.037,-1.05 -2.048,-2.073 -3.032,-3.073 -0.96,-0.975 -1.902,-1.93 -2.818,-2.863 -0.169,-0.173 -0.356,-0.398 -0.561,-0.676 -0.2,-0.272 -0.318,-0.58 -0.353,-0.915 -0.035,-0.334 0.038,-0.646 0.216,-0.943 0.177,-0.293 0.337,-0.549 0.493,-0.753 0.573,-0.749 1.144,-1.478 1.7,-2.193 0.548,-0.702 1.086,-1.391 1.617,-2.068 1.043,0.002 2.088,0.004 3.134,0.005 -0.603,0.771 -1.217,1.557 -1.842,2.364 -0.637,0.822 -1.288,1.666 -1.959,2.525 -0.093,0.118 -0.204,0.266 -0.321,0.456 -0.116,0.19 -0.159,0.391 -0.129,0.61 0.019,0.134 0.095,0.298 0.231,0.493 0.135,0.196 0.257,0.344 0.371,0.45 1.098,1.024 2.22,2.081 3.372,3.163 1.18,1.108 2.399,2.246 3.656,3.418 -1.263,0 -2.519,0 -3.775,0zm-9.73 0c-0.16,-2.589 -0.305,-5.029 -0.445,-7.327 -0.132,-2.17 -0.258,-4.226 -0.375,-6.173 0.881,0.002 1.758,0.003 2.642,0.005 0.189,1.946 0.387,4.001 0.599,6.171 0.224,2.297 0.463,4.736 0.714,7.324 -1.046,0 -2.093,0 -3.135,0z"/></g></g></symbol><symbol viewBox="0 0 255.74677 191.90424" id="sass">
  <g id="SVGRepo_bgCarrier" stroke-width="0"/>
  <g id="SVGRepo_tracerCarrier" stroke-linecap="round" stroke-linejoin="round"/>
  <g id="SVGRepo_iconCarrier">
    <g fill="#B3B3B3">
      <path d="M220.281239,110.513661 C211.374863,110.560291 203.634244,112.705282 197.152641,115.876138 C194.774499,111.166485 192.396357,106.969763 191.976685,103.892168 C191.510383,100.301639 190.95082,98.1100182 191.510383,93.8200364 C192.069945,89.5300546 194.587978,83.4214936 194.541348,82.9551913 C194.494718,82.4888889 193.981785,80.2972678 188.852459,80.2506375 C183.723133,80.2040073 179.29326,81.2298725 178.780328,82.5821494 C178.267395,83.9344262 177.28816,87.0120219 176.635337,90.182878 C175.749362,94.8459016 166.376685,111.492896 161.014208,120.21275 C159.288889,116.808743 157.796721,113.824408 157.47031,111.446266 C157.004007,107.855738 156.444444,105.664117 157.004007,101.374135 C157.56357,97.084153 160.081603,90.975592 160.034973,90.5092896 C159.988342,90.0429872 159.47541,87.8513661 154.346084,87.8047359 C149.216758,87.7581056 144.786885,88.7839709 144.273953,90.1362477 C143.76102,91.4885246 143.201457,94.6593807 142.128962,97.7369763 C141.056466,100.814572 128.606193,128.606193 125.342077,135.78725 C123.663388,139.471038 122.217851,142.408743 121.191985,144.413843 L121.191985,144.413843 C121.191985,144.413843 121.145355,144.553734 121.005464,144.786885 C120.11949,146.512204 119.606557,147.444809 119.606557,147.444809 C119.606557,147.444809 119.606557,147.444809 119.606557,147.491439 C118.907104,148.750455 118.16102,149.916211 117.787978,149.916211 C117.508197,149.916211 116.995264,146.558834 117.881239,141.989071 C119.746448,132.336612 124.176321,117.321676 124.12969,116.808743 C124.12969,116.528962 124.969035,113.917668 121.238616,112.565392 C117.601457,111.213115 116.295811,113.451366 115.969399,113.451366 C115.642987,113.451366 115.409836,114.24408 115.409836,114.24408 C115.409836,114.24408 119.466667,97.3639344 107.669217,97.3639344 C100.301639,97.3639344 90.1362477,105.430965 85.1001821,112.705282 C81.929326,114.430601 75.1679417,118.11439 67.940255,122.07796 C65.189071,123.616758 62.3446266,125.155556 59.6867031,126.601093 C59.5001821,126.414572 59.3136612,126.181421 59.1271403,125.9949 C44.8582878,110.746812 18.4655738,99.9752277 19.5846995,79.5045537 C20.0043716,72.0437158 22.5690346,52.4590164 70.2717668,28.6775956 C109.534426,9.32604736 140.776685,14.6885246 146.185792,26.579235 C153.926412,43.5526412 129.445537,75.0746812 88.8772313,79.6444444 C73.3959927,81.3697632 65.2823315,75.4010929 63.2306011,73.1628415 C61.0856102,70.8313297 60.7591985,70.691439 59.9664845,71.1577413 C58.6608379,71.8571949 59.5001821,73.9555556 59.9664845,75.1679417 C61.1788707,78.3387978 66.168306,83.9344262 74.6083789,86.6856102 C82.0692168,89.1103825 100.208379,90.4626594 122.17122,81.9759563 C146.745355,72.463388 165.957013,46.0240437 160.314754,23.8746812 C154.672495,1.3989071 117.368306,-6.01530055 82.0692168,6.52823315 C61.0856102,13.989071 38.3300546,25.7398907 21.9628415,41.0346084 C2.51803279,59.2204007 -0.559562842,75.028051 0.699453552,81.6495446 C5.22258652,105.151184 37.6306011,120.445902 50.5938069,131.777049 C49.9409836,132.150091 49.3347905,132.476503 48.8218579,132.756284 C42.340255,135.97377 17.6262295,148.890346 11.4710383,162.553005 C4.47650273,178.034244 12.5901639,189.13224 17.9526412,190.624408 C34.5996357,195.240801 51.7129326,186.940619 60.8990893,173.23133 C70.0852459,159.52204 68.9661202,141.70929 64.7227687,133.548998 C64.6761384,133.455738 64.6295082,133.362477 64.5362477,133.269217 C66.2149362,132.289982 67.940255,131.264117 69.6189435,130.284882 C72.9296903,128.326412 76.1938069,126.507832 78.9916211,125.015665 C77.4061931,129.352277 76.2404372,134.528233 75.6808743,141.989071 C74.9814208,150.755556 78.571949,162.133333 83.2816029,166.609836 C85.3799636,168.568306 87.8513661,168.614936 89.4367942,168.614936 C94.9391621,168.614936 97.4105647,164.045173 100.161749,158.636066 C103.519126,152.014572 106.550091,144.320583 106.550091,144.320583 C106.550091,144.320583 102.773042,165.117668 113.031694,165.117668 C116.762113,165.117668 120.539162,160.268124 122.217851,157.796721 L122.217851,157.843352 C122.217851,157.843352 122.311111,157.703461 122.497632,157.377049 C122.870674,156.770856 123.103825,156.397814 123.103825,156.397814 L123.103825,156.304554 C124.595993,153.69326 127.95337,147.77122 132.942805,137.93224 C139.377778,125.248816 145.579599,109.394536 145.579599,109.394536 C145.579599,109.394536 146.139162,113.264845 148.051002,119.699818 C149.170128,123.476867 151.501639,127.626958 153.366849,131.637158 C151.874681,133.735519 150.942077,134.901275 150.942077,134.901275 C150.942077,134.901275 150.942077,134.901275 150.988707,134.947905 C149.776321,136.533333 148.470674,138.258652 147.025137,139.937341 C141.942441,145.999271 135.88051,152.947177 135.041166,154.952277 C134.061931,157.330419 134.295082,159.055738 136.160291,160.454645 C137.512568,161.48051 139.937341,161.620401 142.408743,161.48051 C146.978506,161.154098 150.195993,160.034973 151.781421,159.335519 C154.252823,158.449545 157.143898,157.097268 159.848452,155.092168 C164.837887,151.408379 167.868852,146.139162 167.589071,139.191257 C167.44918,135.367577 166.190164,131.543898 164.651366,127.95337 C165.117668,127.300546 165.537341,126.647723 166.003643,125.9949 C173.884153,114.477231 179.992714,101.840437 179.992714,101.840437 C179.992714,101.840437 180.552277,105.710747 182.464117,112.145719 C183.396721,115.409836 185.308561,118.953734 186.98725,122.404372 C179.573042,128.419672 175.003279,135.414208 173.37122,139.983971 C170.433515,148.470674 172.718397,152.294353 177.055009,153.180328 C179.013479,153.6 181.811293,152.667395 183.863024,151.781421 C186.474317,150.942077 189.551913,149.496539 192.489617,147.351548 C197.479053,143.66776 202.281967,138.538434 202.002186,131.590528 C201.862295,128.419672 201.022951,125.295446 199.857195,122.264481 C206.152277,119.653188 214.265938,118.20765 224.617851,119.420036 C246.813843,122.03133 251.197086,135.88051 250.357741,141.70929 C249.518397,147.538069 244.855373,150.708925 243.316576,151.68816 C241.777778,152.667395 241.264845,152.993807 241.404736,153.69326 C241.591257,154.719126 242.337341,154.672495 243.642987,154.485974 C245.461566,154.159563 255.300546,149.776321 255.720219,139.051366 C256.419672,125.342077 243.363206,110.37377 220.281239,110.513661 L220.281239,110.513661 Z M49.0550091,168.241894 C41.6874317,176.262295 31.4287796,179.29326 26.9989071,176.728597 C22.242623,173.977413 24.1078324,162.133333 33.1540984,153.64663 C38.6564663,148.470674 45.7442623,143.66776 50.4539162,140.730055 C51.5264117,140.077231 53.1118397,139.144627 55.0236794,137.978871 C55.3500911,137.79235 55.536612,137.699089 55.536612,137.699089 L55.536612,137.699089 C55.9096539,137.465938 56.2826958,137.232787 56.6557377,136.999636 C59.9664845,149.123497 56.7956284,159.801821 49.0550091,168.241894 L49.0550091,168.241894 Z M102.679781,131.777049 C100.115118,138.025501 94.7526412,154.019672 91.4885246,153.133698 C88.6907104,152.387614 86.9653916,140.263752 90.9289617,128.279781 C92.9340619,122.264481 97.1774135,115.083424 99.648816,112.28561 C103.659016,107.809107 108.088889,106.31694 109.161384,108.135519 C110.513661,110.513661 104.265209,127.860109 102.679781,131.777049 L102.679781,131.777049 Z M146.931876,152.947177 C145.859381,153.50674 144.833515,153.879781 144.367213,153.6 C144.040801,153.413479 144.833515,152.667395 144.833515,152.667395 C144.833515,152.667395 150.382514,146.698725 152.574135,143.994171 C153.833151,142.408743 155.325319,140.543534 156.910747,138.445173 L156.910747,139.051366 C156.910747,146.185792 150.009472,150.988707 146.931876,152.947177 L146.931876,152.947177 Z M181.065209,145.159927 C180.272495,144.600364 180.412386,142.735155 183.07031,136.906375 C184.096175,134.621494 186.520947,130.797814 190.671038,127.114026 C191.137341,128.606193 191.463752,130.05173 191.417122,131.404007 C191.370492,140.403643 184.935519,143.76102 181.065209,145.159927 L181.065209,145.159927 Z">
      </path>
    </g>
  </g>
</symbol><symbol viewBox="0 0 22.409332 27.186668" id="tel">
  <g id="SVGRepo_bgCarrier" stroke-width="0"/>
  <g id="SVGRepo_tracerCarrier" stroke-linecap="round" stroke-linejoin="round"/>
  <g id="SVGRepo_iconCarrier">
    <title>phone</title>
    <path d="M0 10.375c0 0.938 0.344 1.969 0.781 3.063s1 2.125 1.438 2.906c1.188 2.063 2.719 4.094 4.469 5.781s3.813 3.094 6.125 3.938c1.344 0.531 2.688 1.125 4.188 1.125 0.75 0 1.813-0.281 2.781-0.688 0.938-0.406 1.781-1.031 2.094-1.781 0.125-0.281 0.281-0.656 0.375-1.094 0.094-0.406 0.156-0.813 0.156-1.094 0-0.156 0-0.313-0.031-0.344-0.094-0.188-0.313-0.344-0.563-0.5-0.563-0.281-0.656-0.375-1.5-0.875-0.875-0.5-1.781-1.063-2.563-1.469-0.375-0.219-0.625-0.313-0.719-0.313-0.5 0-1.125 0.688-1.656 1.438-0.563 0.75-1.188 1.438-1.625 1.438-0.219 0-0.438-0.094-0.688-0.25s-0.5-0.281-0.656-0.375c-2.75-1.563-4.594-3.406-6.156-6.125-0.188-0.313-0.625-0.969-0.625-1.313 0-0.406 0.563-0.875 1.125-1.375 0.531-0.469 1.094-1.031 1.094-1.719 0-0.094-0.063-0.375-0.188-0.781-0.281-0.813-0.656-1.75-0.969-2.656-0.156-0.438-0.281-0.75-0.313-0.906-0.063-0.094-0.094-0.219-0.125-0.375s-0.094-0.281-0.125-0.406c-0.094-0.281-0.25-0.5-0.406-0.625-0.156-0.063-0.531-0.156-0.906-0.188-0.375 0-0.813-0.031-1-0.031-0.094 0-0.219 0-0.344 0.031h-0.406c-1 0.438-1.719 1.313-2.25 2.344-0.5 1.031-0.813 2.188-0.813 3.219z">
    </path>
  </g>
</symbol><symbol viewBox="0 0 30 30" id="telegram">
  <g id="SVGRepo_bgCarrier" stroke-width="0"/>
  <g id="SVGRepo_tracerCarrier" stroke-linecap="round" stroke-linejoin="round"/>
  <g id="SVGRepo_iconCarrier">
    <circle cx="16" cy="16" r="14" fill="url(#paint0_linear_87_7225)"/>
    <path d="M22.9866 10.2088C23.1112 9.40332 22.3454 8.76755 21.6292 9.082L7.36482 15.3448C6.85123 15.5703 6.8888 16.3483 7.42147 16.5179L10.3631 17.4547C10.9246 17.6335 11.5325 17.541 12.0228 17.2023L18.655 12.6203C18.855 12.4821 19.073 12.7665 18.9021 12.9426L14.1281 17.8646C13.665 18.3421 13.7569 19.1512 14.314 19.5005L19.659 22.8523C20.2585 23.2282 21.0297 22.8506 21.1418 22.1261L22.9866 10.2088Z" fill="white"/>
    <defs>
      <linearGradient id="paint0_linear_87_7225" x1="16" y1="2" x2="16" y2="30" gradientUnits="userSpaceOnUse">
        <stop stop-color="#37BBFE"/>
        <stop offset="1" stop-color="#007DBB"/>
      </linearGradient>
    </defs>
  </g>
</symbol><symbol viewBox="0 0 24 24" id="typescript"><g><path d="M21.656,0H2.344C1.05,0,0,1.05,0,2.344v19.312C0,22.95,1.05,24,2.344,24h19.312C22.95,24,24,22.95,24,21.656V2.344   C24,1.05,22.95,0,21.656,0z M13.922,13.316h-3.01v8.574H8.527v-8.574H5.531v-1.926h8.391V13.316z M21.698,20.37   c-0.467,0.835-1.325,1.305-2.238,1.5c-1.06,0.226-2.187,0.214-3.25,0.015c-0.521-0.098-0.972-0.244-1.353-0.44v-2.347   c0.426,0.357,0.888,0.625,1.387,0.803c0.499,0.179,1.003,0.268,1.511,0.268c0.45,0,0.951-0.056,1.339-0.304   c0.266-0.17,0.444-0.438,0.444-0.759c0-0.437-0.316-0.767-0.657-0.997c-0.499-0.336-1.072-0.555-1.625-0.785   c-0.822-0.342-1.434-0.76-1.838-1.254c-0.702-0.859-0.817-2.231-0.275-3.201c0.463-0.828,1.316-1.316,2.216-1.533   c0.981-0.236,2.046-0.236,3.041-0.081c0.423,0.066,0.813,0.167,1.17,0.304v2.193c-0.176-0.122-0.368-0.23-0.576-0.322   c-0.41-0.183-0.853-0.307-1.298-0.367c-0.445-0.06-0.914-0.07-1.353,0.033c-0.346,0.08-0.71,0.241-0.91,0.55   c-0.083,0.13-0.125,0.275-0.125,0.436c0,0.176,0.046,0.334,0.139,0.473c0.235,0.353,0.649,0.58,1.02,0.763   c0.652,0.32,1.336,0.56,1.962,0.931c0.608,0.359,1.148,0.859,1.412,1.525c0.127,0.32,0.191,0.693,0.191,1.118   C22.031,19.479,21.92,19.972,21.698,20.37z"/></g></symbol><symbol viewBox="0 0 256 220.8" id="vue">
  <path d="M204.8 0H256L128 220.8 0 0h97.92L128 51.2 157.44 0h47.36z" fill="#41B883"/>
  <path d="M0 0l128 220.8L256 0h-51.2L128 132.48 50.56 0H0z" fill="#41B883"/>
  <path d="M50.56 0L128 133.12 204.8 0h-47.36L128 51.2 97.92 0H50.56z" fill="#35495E"/>
</symbol><symbol viewBox="0 0 47 39" id="wcomm">
  <path fill="#B3B3B3" d="M43,11H5c-2.209,0-4,1.791-4,4v16c0,2.209,1.791,4,4,4h19l8,4l-2-4h13c2.209,0,4-1.791,4-4V15 C47,12.791,45.209,11,43,11z"/>
  <path fill="#fff" d="M40.443 19c.041 0 .132.005.277.038.342.077.559.198.82.686C41.85 20.283 42 21.007 42 21.939c0 1.398-.317 2.639-.973 3.802C40.321 27 39.805 27 39.557 27c-.041 0-.132-.005-.277-.038-.342-.077-.559-.198-.809-.666C38.158 25.722 38 24.963 38 24.043c0-1.399.314-2.63.963-3.765C39.691 19 40.218 19 40.443 19M40.443 16c-1.67 0-3.026.931-4.087 2.793C35.452 20.375 35 22.125 35 24.043c0 1.434.278 2.662.835 3.686.626 1.173 1.548 1.88 2.783 2.16C38.948 29.963 39.261 30 39.557 30c1.687 0 3.043-.931 4.087-2.793C44.548 25.606 45 23.856 45 21.939c0-1.452-.278-2.662-.835-3.668-.626-1.173-1.548-1.88-2.783-2.16C41.052 16.037 40.739 16 40.443 16L40.443 16zM28.443 19c.041 0 .132.005.268.036.333.076.571.207.829.689C29.85 20.283 30 21.007 30 21.939c0 1.398-.317 2.639-.973 3.802C28.321 27 27.805 27 27.557 27c-.041 0-.132-.005-.277-.038-.342-.077-.559-.198-.809-.666C26.158 25.722 26 24.963 26 24.043c0-1.399.314-2.63.963-3.765C27.691 19 28.218 19 28.443 19M28.443 16c-1.67 0-3.026.931-4.087 2.793C23.452 20.375 23 22.125 23 24.043c0 1.434.278 2.662.835 3.686.626 1.173 1.548 1.88 2.783 2.16C26.948 29.963 27.261 30 27.557 30c1.687 0 3.043-.931 4.087-2.793C32.548 25.606 33 23.856 33 21.939c0-1.452-.278-2.662-.835-3.668-.626-1.173-1.565-1.88-2.783-2.16C29.052 16.037 28.739 16 28.443 16L28.443 16zM18.5 32c-.421 0-.832-.178-1.123-.505-2.196-2.479-3.545-5.735-4.34-8.343-1.144 2.42-2.688 5.515-4.251 8.119-.309.515-.894.792-1.491.715-.596-.083-1.085-.513-1.242-1.093-2.212-8.127-3.007-13.95-3.039-14.194-.11-.82.466-1.575 1.286-1.686.831-.108 1.576.465 1.687 1.286.007.049.571 4.177 2.033 10.199 2.218-4.208 4.078-8.535 4.102-8.59.267-.62.919-.989 1.58-.895.668.09 1.194.615 1.285 1.283.007.052.542 3.825 2.245 7.451.719-7.166 2.873-10.839 2.982-11.021.427-.711 1.35-.941 2.058-.515.711.426.941 1.348.515 2.058C22.762 16.313 20 21.115 20 30.5c0 .623-.386 1.182-.968 1.402C18.858 31.968 18.679 32 18.5 32z"/>
</symbol><symbol viewBox="0 0 110.799995 122.88" id="webpack">
  <defs>
    <style>.a { fill: rgb(179, 179, 179); }.b { fill: rgb(102, 102, 102); }</style>
  </defs>
  <path class="a" d="M107.39,94.71l-49.8,28.17V100.94l31-17.07L107.39,94.7Zm3.41-3.09V32.71L92.58,43.24V81.11L110.8,91.62ZM3.41,94.71l49.8,28.17V100.94l-31-17.07L3.41,94.71ZM0,91.62V32.71L18.22,43.24V81.11L0,91.62ZM2.14,28.89,53.21,0V21.2l-32.73,18-.26.14L2.14,28.89Zm106.52,0L57.59,0V21.2l32.73,18,.26.15,18.08-10.45Z"/>
  <path class="b" d="M53.21,96,22.59,79.1V45.75L53.21,63.43V96Zm4.38,0L88.21,79.12V45.75L57.59,63.43V96Zm-32.93-54L55.4,25,86.14,41.9,55.4,59.64,24.66,41.9Z"/>
</symbol><symbol viewBox="0 0 24 24" id="w-press">
  <g id="W_Mark_2_">
    <path d="M12,0.72c1.523,0,3,0.298,4.39,0.886c2.671,1.13,4.874,3.333,6.003,6.003C22.982,9,23.28,10.477,23.28,12   s-0.298,3-0.886,4.39c-1.116,2.639-3.35,4.881-6.003,6.003C15,22.982,13.523,23.28,12,23.28c-1.523,0-3-0.298-4.39-0.886   c-2.638-1.116-4.881-3.351-6.003-6.003C1.018,15,0.72,13.523,0.72,12c0-1.523,0.298-3,0.886-4.39   C2.736,4.939,4.94,2.735,7.61,1.606C9,1.018,10.477,0.72,12,0.72 M12,0C5.373,0,0,5.373,0,12c0,6.627,5.373,12,12,12   s12-5.373,12-12C24,5.373,18.627,0,12,0L12,0z"/>
    <path d="M2,12c0,3.958,2.3,7.379,5.636,9L2.866,7.93C2.311,9.174,2,10.55,2,12z M18.751,11.495c0-1.236-0.444-2.092-0.824-2.758   c-0.507-0.824-0.982-1.521-0.982-2.345c0-0.919,0.697-1.775,1.679-1.775c0.044,0,0.086,0.005,0.129,0.008   C16.974,2.995,14.603,2,12,2C8.506,2,5.433,3.793,3.645,6.507C3.88,6.515,4.101,6.519,4.288,6.519c1.046,0,2.665-0.127,2.665-0.127   c0.539-0.032,0.602,0.76,0.064,0.824c0,0-0.542,0.063-1.144,0.095l3.641,10.832l2.189-6.563l-1.558-4.269   C9.607,7.28,9.096,7.216,9.096,7.216C8.557,7.184,8.621,6.361,9.16,6.392c0,0,1.651,0.127,2.634,0.127   c1.046,0,2.666-0.127,2.666-0.127c0.539-0.032,0.602,0.76,0.064,0.824c0,0-0.542,0.063-1.144,0.095l3.614,10.749l1.032-3.269   C18.482,13.363,18.751,12.351,18.751,11.495z M12.176,12.874l-3.001,8.718C10.071,21.856,11.018,22,12,22   c1.164,0,2.282-0.201,3.321-0.567c-0.027-0.043-0.051-0.088-0.072-0.138L12.176,12.874z M20.775,7.202   c0.043,0.318,0.067,0.66,0.067,1.028c0,1.014-0.19,2.155-0.761,3.582l-3.054,8.831C20.001,18.91,22,15.689,22,12   C22,10.261,21.556,8.627,20.775,7.202z"/>
  </g>
</symbol></svg>