<svg 
  xmlns="http://www.w3.org/2000/svg" 
  xml:space="preserve" 
  version="1.1"
  style="shape-rendering:geometricPrecision; text-rendering:geometricPrecision; image-rendering:optimizeQuality; fill-rule:evenodd; clip-rule:evenodd"
  viewBox="0 0 45 33.75" xmlns:xlink="http://www.w3.org/1999/xlink"
  xmlns:xodm="http://www.corel.com/coreldraw/odm/2003"
  display="flex"
>
  <defs>
    <style type="text/css">
      <![CDATA[
      .fil0 {
        fill: #91DC5A
      }

      .fil2 {
        fill: white
      }

      .fil3 {
        fill: #5B5B5B;
        fill-rule: nonzero
      }

      .fil1 {
        fill: white;
        fill-rule: nonzero
      }
      ]]>
    </style>
  </defs>
  <g id="Слой_x0020_1">
    <metadata id="CorelCorpID_0Corel-Layer" />
    <g id="_2331783948704">
      <g>
        <path class="fil0"
          d="M4.668 1.38c5.749,0 11.507,0 17.266,0 5.752,0 11.514,0 17.279,0 0.593,3.778 1.227,7.818 1.906,12.147 0.731,4.663 1.52,9.691 2.374,15.133 -7.182,0 -14.364,0.001 -21.537,0.003 -7.174,0.001 -14.351,0 -21.52,0 0.844,-5.442 1.625,-10.473 2.348,-15.138 0.672,-4.332 1.299,-8.372 1.884,-12.145z" />
        <g>
          <path class="fil1"
            d="M22.017 3.061l0 0.229 0 0 -0.305 0 -0.304 0 -0.304 0 -0.304 0 -0.304 0 -0.304 -0.001 -0.304 0 -0.304 0 -0.304 0 -0.304 0 -0.304 0 -0.304 0 -0.304 0 -0.304 0 -0.304 0 -0.304 -0.001 -0.304 0 -0.304 0 -0.304 0 -0.304 0 -0.303 0 -0.304 0 -0.304 0 -0.304 0 -0.303 0 -0.304 0 -0.304 -0.001 -0.304 0 -0.303 0 -0.303 0 -0.304 0 -0.304 0 0 -0.229 0.304 0 0.304 0 0.303 0 0.303 0 0.304 0 0.304 0.001 0.304 0 0.303 0 0.304 0 0.304 0 0.304 0 0.303 0 0.304 0.001 0.304 0 0.304 0 0.304 0 0.304 0 0.304 0 0.304 0 0.304 0 0.304 0 0.304 0 0.304 0.001 0.304 0 0.304 0 0.304 0 0.304 0 0.304 0 0.304 0 0.304 0 0.304 0 0.305 0 0 0zm9.727 0l0 0.229 -0.305 0 -0.304 0 -0.304 0 -0.305 0 -0.304 0 -0.305 0 -0.304 0 -0.304 0 -0.304 0 -0.304 0 -0.305 0 -0.304 0 -0.304 0 -0.304 0 -0.304 0 -0.304 0 -0.304 0 -0.304 0 -0.304 0 -0.304 0 -0.303 0 -0.304 0 -0.304 0 -0.304 0 -0.303 0 -0.304 0 -0.304 0 -0.304 0 -0.303 0 -0.303 0 -0.304 0 -0.303 0 0 -0.229 0.303 0 0.304 0 0.303 0 0.303 0 0.304 0 0.304 0 0.304 0 0.303 0 0.304 0 0.304 0 0.304 0 0.303 0 0.304 0 0.304 0 0.304 0 0.304 0 0.304 0 0.304 0 0.304 0 0.304 0 0.304 0 0.305 0 0.304 0 0.304 0 0.304 0 0.304 0 0.305 0 0.304 0 0.305 0 0.304 0 0.304 0 0.305 0z" />
        </g>
        <g>
          <path class="fil1"
            d="M11.078 13.505l0 0 0.035 -0.405 0.035 -0.404 0.034 -0.402 0.035 -0.4 0.034 -0.398 0.033 -0.397 0.035 -0.395 0.033 -0.393 0.034 -0.392 0.033 -0.39 0.033 -0.389 0.034 -0.386 0.033 -0.386 0.033 -0.383 0.032 -0.382 0.033 -0.38 0.032 -0.378 0.033 -0.377 0.032 -0.375 0.032 -0.374 0.032 -0.372 0.032 -0.37 0.031 -0.369 0.032 -0.368 0.031 -0.365 0.031 -0.364 0.031 -0.363 0.032 -0.36 0.03 -0.36 0.031 -0.357 0.03 -0.356 0.031 -0.355 0.456 0.039 -0.031 0.355 -0.03 0.356 -0.031 0.357 -0.031 0.36 -0.031 0.36 -0.031 0.363 -0.031 0.364 -0.031 0.365 -0.032 0.368 -0.031 0.369 -0.032 0.37 -0.032 0.372 -0.032 0.374 -0.032 0.375 -0.033 0.377 -0.032 0.378 -0.033 0.38 -0.032 0.382 -0.033 0.383 -0.034 0.386 -0.033 0.386 -0.033 0.389 -0.033 0.39 -0.034 0.392 -0.034 0.393 -0.034 0.395 -0.033 0.397 -0.035 0.398 -0.034 0.4 -0.034 0.402 -0.035 0.404 -0.035 0.405 0 0 -0.456 -0.039zm-1.299 15.138l0.044 -0.509 0.044 -0.506 0.043 -0.504 0.042 -0.502 0.044 -0.5 0.042 -0.497 0.043 -0.494 0.042 -0.493 0.042 -0.49 0.042 -0.487 0.042 -0.486 0.041 -0.483 0.041 -0.48 0.041 -0.479 0.041 -0.476 0.04 -0.474 0.041 -0.472 0.041 -0.469 0.04 -0.467 0.039 -0.465 0.04 -0.462 0.039 -0.461 0.04 -0.458 0.039 -0.456 0.039 -0.453 0.038 -0.452 0.039 -0.449 0.039 -0.447 0.038 -0.445 0.038 -0.443 0.038 -0.44 0.037 -0.439 0.456 0.039 -0.037 0.439 -0.039 0.44 -0.037 0.443 -0.038 0.445 -0.039 0.447 -0.039 0.449 -0.038 0.452 -0.039 0.453 -0.039 0.456 -0.04 0.458 -0.039 0.461 -0.04 0.462 -0.039 0.465 -0.041 0.467 -0.04 0.469 -0.041 0.472 -0.04 0.474 -0.041 0.476 -0.041 0.479 -0.041 0.48 -0.042 0.483 -0.042 0.486 -0.042 0.487 -0.041 0.49 -0.042 0.493 -0.043 0.494 -0.042 0.497 -0.044 0.5 -0.042 0.502 -0.044 0.504 -0.043 0.506 -0.044 0.509 -0.456 -0.039z" />
        </g>
        <g>
          <path class="fil1"
            d="M22.051 25.987l0 0.229 0 0 -0.366 0 -0.366 0 -0.365 0 -0.366 0 -0.366 0 -0.366 0 -0.365 0.001 -0.366 0 -0.366 0 -0.366 0 -0.366 0 -0.366 0 -0.366 0 -0.365 0 -0.366 0 -0.366 0 -0.366 -0.001 -0.366 0 -0.366 0 -0.366 0 -0.366 0 -0.365 0 -0.366 0 -0.366 0 -0.366 0 -0.365 0 -0.366 0 -0.366 0 -0.366 0 -0.366 0 -0.365 0 -0.366 0 0 -0.229 0.366 0 0.365 0 0.366 0 0.366 0 0.366 0 0.366 0 0.365 0 0.366 0 0.366 0 0.366 0 0.365 0 0.366 0 0.366 0 0.366 0 0.366 0 0.366 0.001 0.366 0 0.366 0 0.365 0 0.366 0 0.366 0 0.366 0 0.366 0 0.366 0 0.366 0 0.365 -0.001 0.366 0 0.366 0 0.366 0 0.365 0 0.366 0 0.366 0 0 0zm11.709 -0.003l0 0.229 -0.366 0 -0.366 0 -0.366 0 -0.366 0 -0.366 0 -0.366 0 -0.366 0.001 -0.366 0 -0.366 0 -0.366 0 -0.366 0 -0.366 0 -0.366 0 -0.366 0 -0.366 0 -0.366 0 -0.366 0 -0.366 0 -0.366 0 -0.366 0 -0.366 0.001 -0.366 0 -0.366 0 -0.365 0 -0.366 0 -0.366 0 -0.366 0 -0.365 0 -0.366 0 -0.366 0 -0.366 0.001 -0.365 0 0 -0.229 0.365 0 0.366 0 0.366 0 0.366 0 0.365 0 0.366 -0.001 0.366 0 0.366 0 0.365 0 0.366 0 0.366 0 0.366 0 0.366 0 0.366 0 0.366 0 0.366 -0.001 0.366 0 0.366 0 0.366 0 0.366 0 0.366 0 0.366 0 0.366 0 0.366 0 0.366 0 0.366 -0.001 0.366 0 0.366 0 0.366 0 0.366 0 0.366 0 0.366 0z" />
        </g>
        <g>
          <path class="fil1"
            d="M22.006 17.602l0 0 -0.343 0 -0.344 0 -0.343 0 -0.344 0 -0.343 0 -0.344 0 -0.343 0 -0.344 0 -0.343 0 -0.344 0 -0.343 0 -0.344 0 -0.343 0 -0.344 0 -0.344 0 -0.343 0 -0.344 0 -0.343 0 -0.344 0 -0.343 0 -0.344 0 -0.343 0 -0.344 0 -0.343 0 -0.344 0 -0.343 0 -0.344 0 -0.344 0 -0.343 0 -0.344 0 -0.343 0 -0.344 0 0 -0.229 0.344 0 0.343 0 0.344 0 0.343 0 0.344 0 0.344 0 0.343 0 0.344 0 0.343 0 0.344 0 0.343 0 0.344 0 0.343 0 0.344 0 0.343 0 0.344 0 0.343 0 0.344 0 0.344 0 0.343 0 0.344 0 0.343 0 0.344 0 0.343 0 0.344 0 0.343 0 0.344 0 0.343 0 0.344 0 0.343 0 0.344 0 0.343 0 0 0 0 0.229zm10.997 0l-0.344 0 -0.344 0 -0.344 0 -0.344 0 -0.343 0 -0.344 0 -0.344 0 -0.344 0 -0.343 0 -0.344 0 -0.344 0 -0.343 0 -0.344 0 -0.344 0 -0.343 0 -0.344 0 -0.344 0 -0.343 0 -0.344 0 -0.343 0 -0.344 0 -0.344 0 -0.343 0 -0.344 0 -0.343 0 -0.344 0 -0.343 0 -0.344 0 -0.343 0 -0.344 0 -0.343 0 -0.344 0 0 -0.229 0.344 0 0.343 0 0.344 0 0.343 0 0.344 0 0.343 0 0.344 0 0.343 0 0.344 0 0.343 0 0.344 0 0.344 0 0.343 0 0.344 0 0.343 0 0.344 0 0.344 0 0.343 0 0.344 0 0.344 0 0.343 0 0.344 0 0.344 0 0.343 0 0.344 0 0.344 0 0.344 0 0.343 0 0.344 0 0.344 0 0.344 0 0.344 0 0 0.229z" />
        </g>
        <g>
          <path class="fil1"
            d="M22.005 10.018l0 0 -0.323 0 -0.324 0 -0.322 0 -0.323 0 -0.323 0 -0.323 0 -0.323 0 -0.323 0 -0.323 0 -0.323 0 -0.323 0 -0.323 0 -0.323 0 -0.322 0 -0.323 0 -0.323 0 -0.323 0 -0.323 0 -0.322 0 -0.323 0 -0.323 0 -0.323 0 -0.322 0 -0.323 0 -0.322 0 -0.323 0 -0.323 0 -0.322 0 -0.322 0 -0.323 0 -0.322 0 -0.322 0 0 -0.229 0.322 0 0.322 0 0.323 0 0.322 0 0.322 0 0.323 0 0.323 0 0.322 0 0.323 0 0.322 0 0.323 0 0.323 0 0.323 0 0.322 0 0.323 0 0.323 0 0.323 0 0.323 0 0.322 0 0.323 0 0.323 0 0.323 0 0.323 0 0.323 0 0.323 0 0.323 0 0.323 0 0.323 0 0.323 0 0.322 0 0.324 0 0.323 0 0 0 0 0.229zm10.331 0.002l-0.323 0 -0.324 0 -0.323 0 -0.323 0 -0.323 0 -0.324 0 -0.323 0 -0.323 0 -0.323 0 -0.323 0 -0.323 0 -0.323 0 -0.323 -0.001 -0.323 0 -0.323 0 -0.323 0 -0.323 0 -0.323 0 -0.323 0 -0.322 -0.001 -0.323 0 -0.322 0 -0.323 0 -0.323 0 -0.322 0 -0.323 0 -0.323 0 -0.322 0 -0.322 0 -0.323 0 -0.322 0 -0.322 0 0 -0.229 0.322 0 0.322 0 0.323 0 0.322 0 0.322 0 0.323 0 0.323 0 0.322 0 0.323 0 0.323 0.001 0.322 0 0.323 0 0.322 0 0.323 0 0.323 0 0.323 0 0.323 0 0.323 0 0.323 0 0.323 0.001 0.323 0 0.323 0 0.323 0 0.323 0 0.323 0 0.323 0 0.324 0.001 0.323 0 0.323 0 0.323 0 0.324 0 0.323 0 0 0.228z" />
        </g>
        <g>
          <path class="fil1"
            d="M32.405 13.586l0 0 -0.035 -0.406 -0.035 -0.404 -0.034 -0.403 -0.035 -0.401 -0.034 -0.399 -0.034 -0.398 -0.034 -0.396 -0.034 -0.394 -0.034 -0.393 -0.034 -0.391 -0.033 -0.389 -0.033 -0.388 -0.034 -0.386 -0.033 -0.385 -0.033 -0.383 -0.032 -0.381 -0.033 -0.38 -0.033 -0.378 -0.032 -0.377 -0.032 -0.375 -0.032 -0.373 -0.032 -0.372 -0.032 -0.37 -0.032 -0.369 -0.031 -0.367 -0.032 -0.366 -0.031 -0.364 -0.032 -0.363 -0.03 -0.361 -0.031 -0.359 -0.031 -0.359 -0.031 -0.356 0.458 -0.04 0.03 0.357 0.031 0.358 0.031 0.359 0.031 0.362 0.031 0.362 0.032 0.364 0.031 0.366 0.032 0.367 0.031 0.369 0.032 0.37 0.032 0.372 0.032 0.374 0.033 0.375 0.032 0.376 0.033 0.379 0.032 0.379 0.033 0.381 0.033 0.384 0.033 0.384 0.033 0.386 0.034 0.388 0.033 0.39 0.034 0.39 0.033 0.393 0.034 0.395 0.034 0.396 0.034 0.397 0.035 0.399 0.034 0.402 0.035 0.402 0.035 0.404 0.035 0.406 0 0 -0.458 0.04zm1.3 15.119l-0.044 -0.507 -0.043 -0.506 -0.044 -0.503 -0.043 -0.501 -0.042 -0.498 -0.043 -0.496 -0.043 -0.494 -0.042 -0.491 -0.042 -0.49 -0.042 -0.486 -0.042 -0.485 -0.041 -0.482 -0.041 -0.48 -0.041 -0.478 -0.041 -0.475 -0.041 -0.474 -0.04 -0.471 -0.041 -0.468 -0.04 -0.467 -0.04 -0.464 -0.039 -0.462 -0.04 -0.46 -0.039 -0.458 -0.039 -0.455 -0.039 -0.454 -0.039 -0.451 -0.039 -0.449 -0.038 -0.447 -0.038 -0.445 -0.038 -0.443 -0.038 -0.44 -0.038 -0.439 0.458 -0.04 0.037 0.439 0.038 0.44 0.038 0.443 0.039 0.445 0.038 0.447 0.039 0.449 0.038 0.451 0.039 0.454 0.039 0.455 0.04 0.458 0.039 0.46 0.04 0.462 0.04 0.464 0.04 0.467 0.04 0.469 0.041 0.471 0.04 0.473 0.041 0.475 0.041 0.478 0.042 0.48 0.041 0.482 0.042 0.485 0.042 0.487 0.042 0.489 0.042 0.491 0.042 0.494 0.043 0.496 0.043 0.499 0.043 0.5 0.043 0.503 0.044 0.506 0.043 0.508 -0.457 0.039z" />
        </g>
        <path class="fil2"
          d="M8.44 12.156c0.891,0 1.548,0.633 1.472,1.435 -0.076,0.801 -0.876,1.467 -1.788,1.467 -0.912,0 -1.569,-0.666 -1.472,-1.467 0.097,-0.802 0.897,-1.435 1.788,-1.435z" />
        <path class="fil2"
          d="M8.653 13.172c1.785,0 3.57,0 5.355,0 -0.019,0.3 -0.038,0.603 -0.058,0.903 -1.798,0 -3.596,0 -5.39,0 0.032,-0.302 0.061,-0.603 0.093,-0.903z" />
        <g>
          <path class="fil1"
            d="M4.285 13.692l0 0 0.057 -0.407 0.057 -0.405 0.057 -0.403 0.056 -0.401 0.056 -0.4 0.056 -0.398 0.056 -0.397 0.055 -0.394 0.055 -0.393 0.055 -0.392 0.054 -0.389 0.055 -0.388 0.054 -0.387 0.054 -0.384 0.054 -0.383 0.053 -0.382 0.054 -0.379 0.052 -0.378 0.053 -0.377 0.053 -0.374 0.052 -0.373 0.052 -0.372 0.052 -0.369 0.052 -0.369 0.051 -0.366 0.051 -0.365 0.051 -0.364 0.051 -0.361 0.051 -0.36 0.05 -0.359 0.05 -0.357 0.05 -0.355 0.603 0.085 -0.05 0.355 -0.049 0.357 -0.051 0.359 -0.05 0.36 -0.051 0.361 -0.051 0.363 -0.051 0.365 -0.052 0.367 -0.051 0.368 -0.052 0.37 -0.052 0.371 -0.052 0.373 -0.053 0.375 -0.053 0.377 -0.053 0.378 -0.053 0.379 -0.053 0.381 -0.054 0.383 -0.054 0.385 -0.054 0.386 -0.055 0.388 -0.054 0.39 -0.055 0.392 -0.055 0.393 -0.056 0.394 -0.055 0.396 -0.056 0.399 -0.056 0.399 -0.056 0.402 -0.057 0.403 -0.057 0.405 -0.057 0.406 0 0 -0.604 -0.084zm-2.129 15.184l0.071 -0.51 0.072 -0.508 0.071 -0.505 0.07 -0.503 0.07 -0.501 0.07 -0.499 0.07 -0.496 0.069 -0.494 0.069 -0.491 0.069 -0.489 0.068 -0.487 0.068 -0.485 0.067 -0.482 0.068 -0.48 0.067 -0.478 0.066 -0.475 0.067 -0.473 0.066 -0.471 0.066 -0.469 0.065 -0.466 0.065 -0.464 0.065 -0.462 0.064 -0.46 0.064 -0.457 0.064 -0.455 0.064 -0.453 0.063 -0.451 0.063 -0.448 0.062 -0.447 0.063 -0.444 0.062 -0.442 0.061 -0.439 0.604 0.084 -0.061 0.44 -0.063 0.442 -0.062 0.444 -0.062 0.447 -0.063 0.448 -0.063 0.45 -0.064 0.453 -0.064 0.456 -0.064 0.457 -0.065 0.46 -0.064 0.462 -0.065 0.463 -0.066 0.467 -0.066 0.469 -0.065 0.47 -0.067 0.474 -0.067 0.475 -0.066 0.477 -0.068 0.48 -0.067 0.483 -0.068 0.485 -0.069 0.486 -0.068 0.489 -0.069 0.492 -0.07 0.494 -0.069 0.496 -0.07 0.498 -0.07 0.501 -0.071 0.504 -0.07 0.505 -0.072 0.508 -0.071 0.51 -0.604 -0.085z" />
        </g>
        <g>
          <path class="fil1"
            d="M39.015 13.595l0 0 -0.058 -0.405 -0.057 -0.404 -0.057 -0.402 -0.057 -0.4 -0.057 -0.398 -0.056 -0.397 -0.056 -0.395 -0.057 -0.394 -0.055 -0.392 -0.056 -0.39 -0.055 -0.388 -0.055 -0.387 -0.055 -0.385 -0.054 -0.384 -0.054 -0.382 -0.055 -0.38 -0.053 -0.379 -0.054 -0.376 -0.054 -0.376 -0.052 -0.374 -0.053 -0.371 -0.053 -0.371 -0.053 -0.37 -0.052 -0.367 -0.052 -0.366 -0.052 -0.364 -0.051 -0.363 -0.051 -0.361 -0.052 -0.36 -0.05 -0.358 -0.051 -0.356 -0.051 -0.355 0.604 -0.086 0.051 0.355 0.05 0.357 0.051 0.358 0.051 0.359 0.052 0.362 0.051 0.362 0.052 0.365 0.052 0.365 0.052 0.368 0.053 0.368 0.052 0.371 0.053 0.373 0.053 0.374 0.054 0.375 0.053 0.377 0.054 0.379 0.055 0.38 0.053 0.382 0.055 0.383 0.055 0.385 0.055 0.387 0.055 0.389 0.056 0.39 0.055 0.392 0.056 0.393 0.056 0.395 0.057 0.397 0.057 0.398 0.057 0.4 0.057 0.402 0.057 0.404 0.058 0.405 0 0 -0.604 0.086zm2.153 15.141l-0.073 -0.509 -0.072 -0.507 -0.072 -0.505 -0.071 -0.503 -0.071 -0.499 -0.071 -0.498 -0.07 -0.494 -0.07 -0.494 -0.07 -0.49 -0.069 -0.488 -0.069 -0.485 -0.069 -0.483 -0.068 -0.481 -0.068 -0.479 -0.068 -0.476 -0.067 -0.474 -0.068 -0.472 -0.066 -0.469 -0.067 -0.467 -0.066 -0.464 -0.066 -0.464 -0.065 -0.46 -0.065 -0.457 -0.065 -0.457 -0.065 -0.453 -0.064 -0.451 -0.063 -0.449 -0.064 -0.447 -0.063 -0.445 -0.063 -0.443 -0.063 -0.44 -0.062 -0.438 0.604 -0.086 0.062 0.438 0.063 0.441 0.063 0.442 0.063 0.445 0.063 0.447 0.064 0.449 0.064 0.452 0.065 0.453 0.065 0.456 0.065 0.458 0.065 0.46 0.066 0.462 0.066 0.465 0.066 0.468 0.067 0.469 0.067 0.471 0.067 0.474 0.068 0.477 0.068 0.478 0.069 0.481 0.069 0.483 0.068 0.486 0.07 0.488 0.07 0.49 0.07 0.492 0.07 0.496 0.071 0.497 0.071 0.5 0.071 0.502 0.072 0.504 0.072 0.507 0.073 0.51 -0.604 0.086z" />
        </g>
      </g>
      <path class="fil3"
        d="M10.688 22.912c-0.18,1.222 -0.234,2.222 -0.155,2.993 0.081,0.785 0.273,1.434 0.576,1.941 0.435,0.73 1.02,1.197 1.75,1.384 0.735,0.188 1.626,0.284 2.667,0.284 0.379,0 0.782,-0.011 1.21,-0.029 0.424,-0.018 0.853,-0.086 1.271,-0.198 0.419,-0.112 0.82,-0.277 1.197,-0.501 0.375,-0.223 0.711,-0.536 1.013,-0.935 0.342,-0.452 0.623,-1.072 0.833,-1.857 0.206,-0.772 0.315,-1.798 0.325,-3.067 0.009,-1.24 -0.082,-2.182 -0.26,-2.847 -0.176,-0.653 -0.405,-1.166 -0.702,-1.534 -0.243,-0.301 -0.533,-0.529 -0.856,-0.698 -0.322,-0.168 -0.656,-0.292 -1.011,-0.376 -0.351,-0.083 -0.703,-0.133 -1.057,-0.146 -0.354,-0.014 -0.696,-0.02 -1.019,-0.022 -0.341,-0.001 -0.687,0.005 -1.043,0.017 -0.359,0.013 -0.716,0.061 -1.074,0.142 -0.356,0.082 -0.706,0.205 -1.048,0.372 -0.341,0.168 -0.656,0.398 -0.95,0.694 -0.368,0.371 -0.69,0.877 -0.968,1.523 -0.281,0.655 -0.513,1.604 -0.699,2.86zm5.965 -7.707c0.43,0.002 0.911,0.011 1.442,0.025 0.531,0.014 1.06,0.068 1.595,0.16 0.536,0.093 1.059,0.236 1.572,0.433 0.513,0.198 0.98,0.487 1.406,0.862 0.401,0.353 0.722,0.769 0.964,1.256 0.243,0.491 0.435,1.011 0.575,1.561 0.141,0.556 0.24,1.131 0.3,1.721 0.06,0.6 0.098,1.17 0.117,1.708 0.016,0.45 0.024,0.985 0.021,1.603 -0.002,0.629 -0.06,1.284 -0.17,1.959 -0.111,0.688 -0.294,1.374 -0.549,2.06 -0.26,0.695 -0.629,1.313 -1.111,1.85 -0.488,0.543 -1.053,0.963 -1.695,1.259 -0.644,0.298 -1.307,0.522 -1.993,0.663 -0.688,0.14 -1.361,0.22 -2.018,0.241 -0.66,0.021 -1.257,0.028 -1.798,0.028 -0.554,0 -1.164,-0.007 -1.821,-0.028 -0.654,-0.021 -1.311,-0.101 -1.966,-0.242 -0.657,-0.141 -1.279,-0.364 -1.873,-0.663 -0.59,-0.296 -1.097,-0.719 -1.52,-1.264 -0.431,-0.555 -0.73,-1.178 -0.891,-1.867 -0.158,-0.677 -0.234,-1.358 -0.233,-2.039 0.001,-0.67 0.051,-1.316 0.144,-1.939 0.091,-0.613 0.185,-1.16 0.278,-1.645 0.109,-0.569 0.236,-1.153 0.378,-1.744 0.142,-0.585 0.328,-1.149 0.552,-1.699 0.224,-0.546 0.497,-1.058 0.824,-1.543 0.323,-0.478 0.733,-0.895 1.219,-1.263 0.488,-0.371 0.997,-0.66 1.544,-0.856 0.543,-0.195 1.083,-0.336 1.627,-0.426 0.541,-0.09 1.076,-0.141 1.603,-0.153 0.524,-0.012 1.021,-0.019 1.477,-0.018zm20.187 17.151c-1.037,-1.05 -2.048,-2.073 -3.032,-3.073 -0.96,-0.975 -1.902,-1.93 -2.818,-2.863 -0.169,-0.173 -0.356,-0.398 -0.561,-0.676 -0.2,-0.272 -0.318,-0.58 -0.353,-0.915 -0.035,-0.334 0.038,-0.646 0.216,-0.943 0.177,-0.293 0.337,-0.549 0.493,-0.753 0.573,-0.749 1.144,-1.478 1.7,-2.193 0.548,-0.702 1.086,-1.391 1.617,-2.068 1.043,0.002 2.088,0.004 3.134,0.005 -0.603,0.771 -1.217,1.557 -1.842,2.364 -0.637,0.822 -1.288,1.666 -1.959,2.525 -0.093,0.118 -0.204,0.266 -0.321,0.456 -0.116,0.19 -0.159,0.391 -0.129,0.61 0.019,0.134 0.095,0.298 0.231,0.493 0.135,0.196 0.257,0.344 0.371,0.45 1.098,1.024 2.22,2.081 3.372,3.163 1.18,1.108 2.399,2.246 3.656,3.418 -1.263,0 -2.519,0 -3.775,0zm-9.73 0c-0.16,-2.589 -0.305,-5.029 -0.445,-7.327 -0.132,-2.17 -0.258,-4.226 -0.375,-6.173 0.881,0.002 1.758,0.003 2.642,0.005 0.189,1.946 0.387,4.001 0.599,6.171 0.224,2.297 0.463,4.736 0.714,7.324 -1.046,0 -2.093,0 -3.135,0z" />
    </g>
  </g>
</svg>